<?xml version="1.0" encoding="UTF-8"?>
<svg id="Layer_1" xmlns="http://www.w3.org/2000/svg" version="1.1" viewBox="0 0 300 100">
  <!-- Generator: Adobe Illustrator 30.0.0, SVG Export Plug-In . SVG Version: 2.1.1 Build 123)  -->
  <path d="M246.66,33.57c-7.92,0-14.34,6.36-14.34,14.2v18.98s28.34,0,28.34,0c7.92,0,14.33-6.36,14.33-14.2v-18.98s-28.34,0-28.34,0ZM267.7,41.83v8.78c0,5.23-4.28,9.47-9.56,9.47h-16.92c-.88,0-1.59-.71-1.59-1.58v-8.78c0-5.23,4.28-9.47,9.56-9.47h16.92c.88,0,1.59.71,1.59,1.58h0Z"/>
  <path d="M217.29,50.11s-.05.07-.07.11c0,.01-.02.03-.03.04.04-.05.07-.09.1-.15Z"/>
  <path d="M225.84,45.74v20.81s-6.19,0-6.19,0v-9.98c-5.77,7.46-12.49,10.01-18.85,10.01h-17.64s0-20.56,0-20.56c0-6.97,5.7-12.62,12.74-12.62h29.93s0,6.68,0,6.68h-25.81c-5.28,0-9.56,4.24-9.56,9.47v10.36s10.34,0,10.34,0c5.15,0,10.61-2.06,15.31-8.04h-11.29s0-6.13,0-6.13h11.29v4.3c0,.56.69.8,1.05.4,0,0,.01-.02.02-.03.01-.01.02-.02.03-.04.02-.04.05-.07.07-.11.01-.01.02-.03.03-.05.17-.25.34-.51.51-.78.03-.04.05-.08.08-.12.12-.18.23-.37.35-.55.09-.15.18-.3.27-.45.36-.61.72-1.26,1.07-1.93.11-.21.22-.42.33-.64h5.91Z"/>
  <path d="M160.13,42.16h-14.27c-2.59,0-3.76,1.38-3.76,4.17v7.34c0,2.76,1.17,4.17,3.76,4.17h14.27c2.55,0,3.72-1.41,3.72-4.17v-7.34c0-2.79-1.17-4.17-3.72-4.17h0Z"/>
  <path d="M34.08,31.95c-5.02,0-9.08,4.07-9.08,9.08v27.03s141.48,0,141.48,0c5.02,0,9.08-4.07,9.08-9.08v-27.03s-141.48,0-141.48,0ZM62.59,61.67h-24.75c-3.89,0-5.31-1.86-5.31-5.27v-3c0-3.41,1.41-5.27,5.31-5.27h20.61s0-1.79,0-1.79c0-2.79-1.21-4.17-3.72-4.17h-21.61s0-3.83,0-3.83h22.47c4.79,0,7,2.52,7,7.58v15.75ZM98.17,61.67h-22.27c-4.72,0-7-2.55-7-7.58v-15.75s4.21,0,4.21,0v15.34c0,2.76,1.21,4.17,3.69,4.17h17.27s0-19.51,0-19.51h4.1s0,23.33,0,23.33ZM132.82,42.16h-12.55s0,19.51,0,19.51h-4.14s0-19.51,0-19.51h-12.51v-3.83s29.19,0,29.19,0v3.83ZM168.03,54.08c0,5.07-2.21,7.58-7.03,7.58h-15.99c-4.83,0-7.07-2.52-7.07-7.58v-8.17c0-5.07,2.24-7.58,7.07-7.58h15.99c4.82,0,7.03,2.52,7.03,7.58v8.17Z"/>
  <path d="M36.67,54.08v1.31c0,1.83.72,2.79,2.65,2.79h19.13s0-6.86,0-6.86h-19.13c-1.93,0-2.65.97-2.65,2.76h0Z"/>
</svg>