<?xml version="1.0" encoding="UTF-8"?>
<svg id="Layer_1" xmlns="http://www.w3.org/2000/svg" version="1.1" viewBox="0 0 300 100">
  <!-- Generator: Adobe Illustrator 30.0.0, SVG Export Plug-In . SVG Version: 2.1.1 Build 123)  -->
  <path d="M107.14,52.64v-23.52h6.54c1.98,0,3.58.5,4.74,1.48,1.15.97,1.74,2.26,1.74,3.83,0,1.31-.35,2.47-1.05,3.44-.7.97-1.68,1.67-2.91,2.07l-.09.03v.29h.12c1.54.2,2.79.79,3.71,1.79.92.99,1.39,2.3,1.39,3.9,0,1.98-.71,3.61-2.11,4.84-1.41,1.23-3.21,1.86-5.36,1.86h-6.7ZM109.62,50.39h3.86c1.64,0,2.93-.4,3.84-1.19.91-.8,1.38-1.91,1.38-3.29,0-2.89-1.95-4.35-5.79-4.35h-3.29v8.83h0ZM109.62,39.32h2.94c1.53,0,2.75-.38,3.63-1.14.89-.76,1.34-1.84,1.34-3.21,0-2.39-1.56-3.6-4.63-3.6h-3.29v7.95Z"/>
  <path d="M141.56,52.78h-10.7v-20.94h2.42v18.72h8.29v2.22Z"/>
  <path d="M163.82,44.31c0,5.88-2.61,8.82-7.84,8.82s-7.51-2.83-7.51-8.48v-12.81h2.42v12.65c0,4.29,1.78,6.44,5.35,6.44s5.17-2.07,5.17-6.22v-12.86h2.42v12.47Z"/>
  <path d="M184.32,52.78h-10.93v-20.94h10.47v2.22h-8.06v6.97h7.45v2.2h-7.45v7.33h8.52v2.22Z"/>
  <path d="M193.22,52.64v-23.52h11.63v2.25h-9.16v8.5h8.47v2.23h-8.47v10.54h-2.48Z"/>
  <path d="M216.51,52.78h-2.42v-20.94h2.42v20.94Z"/>
  <path d="M241.68,31.84l-7.64,20.94h-2.66l-7.48-20.94h2.69l5.71,16.6c.18.54.32,1.15.42,1.85h.06c.08-.59.24-1.21.47-1.88l5.83-16.57h2.6,0Z"/>
  <path d="M260,52.78h-10.93v-20.94h10.47v2.22h-8.06v6.97h7.45v2.2h-7.45v7.33h8.52v2.22Z"/>
  <path d="M113.4,68.3c-.62.33-1.39.5-2.31.5-1.19,0-2.14-.39-2.85-1.17-.71-.78-1.07-1.79-1.07-3.06,0-1.36.4-2.45,1.21-3.29.8-.84,1.82-1.25,3.06-1.25.79,0,1.45.12,1.97.35v1.06c-.6-.34-1.26-.51-1.98-.51-.96,0-1.74.32-2.33.97-.6.65-.89,1.52-.89,2.61s.28,1.86.84,2.47c.56.61,1.29.92,2.19.92.84,0,1.56-.19,2.18-.57v.96h0Z"/>
  <path d="M125.14,68.65h-1.08l-.88-2.38h-3.54l-.83,2.38h-1.09l3.2-8.48h1.01l3.22,8.48ZM122.85,65.39l-1.31-3.61c-.04-.12-.09-.31-.13-.57h-.02c-.04.24-.08.43-.13.57l-1.3,3.61h2.9Z"/>
  <path d="M130.93,65.45v3.2h-.98v-8.48h2.3c.89,0,1.58.22,2.08.66.49.44.74,1.06.74,1.87s-.27,1.46-.82,1.97c-.54.51-1.28.77-2.21.77h-1.1ZM130.93,61.07v3.48h1.02c.68,0,1.19-.16,1.55-.47.35-.31.53-.76.53-1.33,0-1.12-.65-1.68-1.96-1.68h-1.15Z"/>
  <path d="M141.19,68.65h-.98v-8.48h.98v8.48Z"/>
  <path d="M151.9,61.07h-2.41v7.58h-.98v-7.58h-2.41v-.9h5.8v.9Z"/>
  <path d="M162.36,68.65h-1.08l-.88-2.38h-3.54l-.83,2.38h-1.09l3.2-8.48h1.01l3.22,8.48ZM160.07,65.39l-1.31-3.61c-.04-.12-.09-.31-.13-.57h-.02c-.04.24-.08.43-.13.57l-1.3,3.61h2.9Z"/>
  <path d="M171.5,68.65h-4.33v-8.48h.98v7.58h3.35v.9Z"/>
  <path d="M52.62,78.81h-5.43v5.51h5.43v-5.51Z"/>
  <path d="M70.98,19.53c0-2.12-1.7-3.85-3.79-3.85h-1.05c-2.09,0-3.79,1.73-3.79,3.85v31.85h8.64v-31.85h0Z"/>
  <path d="M62.34,51.38v-26.98c0-2.12-1.7-3.85-3.79-3.85h-1.05c-2.09,0-3.79,1.73-3.79,3.85v24.77c0,.08,0,1.12,0,2.21h-8.59c-2.82,0-5.12,2.33-5.12,5.19v3.58h22.34v-8.78h0Z"/>
  <path d="M87.59,51.38h-7.97v-26.98c0-2.12-1.7-3.85-3.79-3.85h-1.05c-2.09,0-3.79,1.73-3.79,3.85v24.77c0,.08,0,1.12,0,2.21h0v8.78h-8.65v8.78h8.65v8.3h2.07c4.86-.6,8.64-4.25,8.64-9.34v-1.3c0-3.55,2.85-6.45,6.35-6.45h4.67v-3.58c0-2.86-2.3-5.19-5.12-5.19Z"/>
  <path d="M53.7,74.16v3.54h8.64v-8.78h-8.64v5.24Z"/>
</svg>