<?xml version="1.0" encoding="UTF-8"?>
<svg id="Layer_1" xmlns="http://www.w3.org/2000/svg" version="1.1" viewBox="0 0 300 100">
  <!-- Generator: Adobe Illustrator 30.0.0, SVG Export Plug-In . SVG Version: 2.1.1 Build 123)  -->
  <path d="M68.39,34.65c2.39,0,4.33-1.94,4.33-4.33s-1.94-4.33-4.33-4.33c-12.63,0-22.91,10.28-22.91,22.91s10.28,22.91,22.91,22.91c2.39,0,4.33-1.94,4.33-4.33s-1.94-4.33-4.33-4.33c-7.86,0-14.25-6.39-14.25-14.25s6.39-14.25,14.25-14.25Z"/>
  <path d="M190.43,37.45c-9.47,0-17.18,7.71-17.18,17.18s7.71,17.18,17.18,17.18,17.18-7.71,17.18-17.18-7.71-17.18-17.18-17.18ZM190.43,63.39c-4.83,0-8.75-3.93-8.75-8.75s3.93-8.75,8.75-8.75,8.75,3.93,8.75,8.75-3.93,8.75-8.75,8.75Z"/>
  <g>
    <path d="M152.03,37.45c-9.47,0-17.18,7.71-17.18,17.18s7.71,17.18,17.18,17.18,17.18-7.71,17.18-17.18-7.71-17.18-17.18-17.18ZM152.03,63.39c-4.83,0-8.75-3.93-8.75-8.75s3.93-8.75,8.75-8.75,8.75,3.93,8.75,8.75-3.93,8.75-8.75,8.75Z"/>
    <path d="M165.27,71.97c-2.17-.83-4.61.27-5.43,2.44-.46,1.22-1.38,2.19-2.57,2.72-1.19.53-2.52.57-3.74.11-2.17-.83-4.61.27-5.43,2.44-.83,2.18.27,4.61,2.44,5.43,1.54.59,3.14.88,4.74.88,1.86,0,3.71-.39,5.45-1.18,3.24-1.46,5.73-4.09,6.99-7.41.83-2.18-.27-4.61-2.44-5.43Z"/>
  </g>
  <path d="M129.92,37.45c-3.33,0-6.44.96-9.08,2.6-.63-1.53-2.14-2.6-3.89-2.6-2.33,0-4.21,1.89-4.21,4.21v25.93c0,2.33,1.89,4.21,4.21,4.21s4.21-1.89,4.21-4.21v-12.97c0-4.83,3.93-8.75,8.75-8.75,2.33,0,4.21-1.89,4.21-4.21s-1.89-4.21-4.21-4.21Z"/>
  <path d="M90.99,37.45c-9.47,0-17.18,7.71-17.18,17.18s7.71,17.18,17.18,17.18c3.33,0,6.44-.96,9.08-2.6.63,1.53,2.14,2.6,3.89,2.6,2.33,0,4.21-1.89,4.21-4.21v-12.97c0-9.47-7.71-17.18-17.18-17.18ZM90.99,63.39c-4.83,0-8.75-3.93-8.75-8.75s3.93-8.75,8.75-8.75,8.75,3.93,8.75,8.75-3.93,8.75-8.75,8.75Z"/>
  <path d="M253.35,27.28h0c-1.62-1.69-4.32-1.72-5.97-.06l-12.81,12.81c-1.63,1.63-4.28,1.63-5.91,0l-12.81-12.81c-1.66-1.66-4.35-1.63-5.97.06h0c-1.58,1.64-1.55,4.24.06,5.85l12.81,12.81c1.63,1.63,1.63,4.28,0,5.91l-12.81,12.81c-1.61,1.61-1.64,4.21-.06,5.85h0c1.62,1.69,4.32,1.72,5.97.06l12.81-12.81c1.63-1.63,4.28-1.63,5.91,0l12.81,12.81c1.66,1.66,4.35,1.63,5.97-.06h0c1.58-1.64,1.55-4.24-.06-5.85l-12.81-12.81c-1.63-1.63-1.63-4.28,0-5.91l12.81-12.81c1.61-1.61,1.64-4.21.06-5.85Z"/>
</svg>