<?xml version="1.0" encoding="UTF-8"?>
<svg id="Layer_1" xmlns="http://www.w3.org/2000/svg" version="1.1" viewBox="0 0 300 100">
  <!-- Generator: Adobe Illustrator 30.0.0, SVG Export Plug-In . SVG Version: 2.1.1 Build 123)  -->
  <g id="_x38_miOAx">
    <g>
      <path d="M156.06,62.02h3.16s-7.3-20.94-7.3-20.94h-2.79s-7.51,20.94-7.51,20.94h3.16s1.59-5.08,1.59-5.08h8.1s1.59,5.08,1.59,5.08ZM147.41,54.06l3.02-9.05h0l3.02,9.05h-6.04Z"/>
      <path d="M104.78,62.02h3.16s-7.3-20.94-7.3-20.94h-2.79s-7.51,20.94-7.51,20.94h3.16s1.59-5.08,1.59-5.08h8.1s1.59,5.08,1.59,5.08ZM96.12,54.06l3.02-9.05h0l3.02,9.05h-6.04Z"/>
      <path d="M163.92,57.59v-10.84h-2.93v10.84c0,1.23.09,4.67,4.04,4.67,2.97,0,5.95-1.63,5.95-1.63l.29,1.4h2.45v-15.28h-2.8v11.31c-1.69.82-3.41,1.45-4.6,1.45-1.46,0-2.4-.52-2.4-1.91Z"/>
      <path d="M214.13,51.17v10.84s2.93,0,2.93,0v-10.84c0-1.23-.09-4.67-4.04-4.67-2.97,0-5.95,1.63-5.95,1.63l-.29-1.4h-2.45s0,15.28,0,15.28h2.8s0-11.31,0-11.31c1.69-.82,3.41-1.45,4.6-1.45,1.46,0,2.4.52,2.4,1.91Z"/>
      <path d="M254.48,46.5c-2.57,0-5.5,1.38-6.24,1.75-.53-.96-1.54-1.75-3.43-1.75-2.97,0-5.95,1.63-5.95,1.63l-.29-1.4h-2.45v15.28h2.8v-11.31c1.69-.82,3.41-1.45,4.6-1.45,1.46,0,2.4.52,2.4,1.91v10.84h2.93v-10.84c0-.16,0-.36-.01-.58,1.61-.76,3.22-1.33,4.36-1.33,1.46,0,2.4.52,2.4,1.91v10.84h2.93v-10.84c0-1.23-.09-4.67-4.04-4.67Z"/>
      <path d="M272.14,46.74s-2.11,6.71-4.07,12.91h0s-1.07.2-1.3-.45c-.11-.3-3.82-12.47-3.82-12.47h-2.86s3.3,11.29,3.74,12.69c.44,1.39,1.68,2.76,3.45,2.76-1.32,4.19-2.4,7.63-2.44,7.75h1.77s2.21-2.97,2.21-2.97c.44-1.39,6.19-20.22,6.19-20.22h-2.86Z"/>
      <path d="M185.63,49.19v-2.45h-4.1c0-2.42,0-4.25,0-4.25h-2.31s-.39,4.25-.39,4.25h-.08s-2.73.57-2.73.57v1.88h2.59s0,7.15,0,9.62c0,2.47,2.16,3.44,3.69,3.44,1.45,0,2.96,0,2.96,0v-1.91s-3.73-.22-3.73-2c0-.75,0-5.17,0-9.15h4.1Z"/>
      <path d="M110.07,39.62s0,16.13,0,19.19c0,2.47,2.16,3.44,3.69,3.44,1.45,0,2.96,0,2.96,0v-1.91s-3.73-.22-3.73-2,0-18.73,0-18.73h-2.91Z"/>
      <path d="M201,52.52c-.26-4.06-1.92-6.03-6.59-6.03-4.67,0-6.33,1.97-6.59,6.03-.1,1.56-.08,2.37,0,3.7.23,4.06,1.76,6.03,6.59,6.03,4.83,0,6.36-1.97,6.59-6.03.08-1.33.1-2.14,0-3.7ZM198.08,55.66c-.13,2.83-.52,4.2-3.67,4.2-3.14,0-3.54-1.37-3.67-4.2-.04-.92-.05-1.49,0-2.57.14-2.83.71-4.2,3.67-4.2s3.52,1.37,3.67,4.2c.05,1.09.04,1.65,0,2.57Z"/>
      <path d="M121.46,48.45l-.55-1.72h-2.12v23.23h2.66s0-7.18,0-8.62c.59.24,2.65,1.08,5.2,1.08,3.58,0,4.97-2.13,5.2-6.19.08-1.33.1-2.14,0-3.7-.26-4.06-.66-5.79-5.32-5.79-2.83,0-5.08,1.72-5.08,1.72ZM121.46,59.3v-8.93c.37-.15,3.33-1.25,5.08-1.25,1.44,0,2.26,1.13,2.4,3.96.05,1.09.04,1.65,0,2.57-.13,2.83.04,4.2-3,4.2-1.98,0-4.48-.55-4.48-.55Z"/>
      <path d="M232.82,52.52c-.26-4.06-1.92-6.03-6.59-6.03-4.67,0-6.33,1.97-6.59,6.03-.1,1.56-.08,2.37,0,3.7.23,4.06,1.76,6.03,6.59,6.03,4.83,0,6.36-1.97,6.59-6.03.08-1.33.1-2.14,0-3.7ZM229.9,55.66c-.13,2.83-.52,4.2-3.67,4.2-3.14,0-3.54-1.37-3.67-4.2-.04-.92-.05-1.49,0-2.57.14-2.83.71-4.2,3.67-4.2,2.95,0,3.52,1.37,3.67,4.2.05,1.09.04,1.65,0,2.57Z"/>
    </g>
    <g>
      <polygon points="73.53 72.55 52.38 32.53 49.4 39.07 64.41 67.47 36.44 67.47 34.13 72.55 73.53 72.55"/>
      <polygon points="43.25 27.45 25 67.47 36.44 67.47 49.4 39.07 43.25 27.45"/>
    </g>
  </g>
</svg>