<?xml version="1.0" encoding="UTF-8"?>
<svg id="Layer_1" xmlns="http://www.w3.org/2000/svg" version="1.1" viewBox="0 0 300 100">
  <!-- Generator: Adobe Illustrator 30.0.0, SVG Export Plug-In . SVG Version: 2.1.1 Build 123)  -->
  <polygon points="146.12 30.08 146.12 45.03 149.04 45.03 149.04 38.77 154.11 38.77 154.11 45.03 157.03 45.03 157.03 30.08 154.11 30.08 154.11 36.19 149.04 36.19 149.04 30.08 146.12 30.08"/>
  <path d="M143.93,40.43h-2.96c-.29,1.2-1.05,2.12-2.52,2.12-.8,0-1.45-.3-1.87-.78-.57-.63-.74-1.34-.74-4.22,0-2.88.17-3.59.74-4.22.42-.48,1.07-.78,1.87-.78,1.47,0,2.23.92,2.52,2.12h2.96c-.52-3.13-2.71-4.73-5.51-4.73-1.63,0-2.98.59-4.03,1.64-1.51,1.51-1.47,3.38-1.47,5.97,0,2.58-.04,4.45,1.47,5.97,1.05,1.05,2.4,1.64,4.03,1.64,2.77,0,4.98-1.6,5.51-4.73Z"/>
  <polygon points="111.31 16.05 117.23 25.23 119.84 25.23 119.84 10.28 116.92 10.28 116.92 19.43 110.99 10.28 108.39 10.28 108.39 25.23 111.31 25.23 111.31 16.05"/>
  <polygon points="139.65 16.05 145.58 25.23 148.18 25.23 148.18 10.28 145.26 10.28 145.26 19.43 139.34 10.28 136.73 10.28 136.73 25.23 139.65 25.23 139.65 16.05"/>
  <path d="M125.64,22.59h5.32s.88,2.65.88,2.65h3.04s-5.46-14.96-5.46-14.96h-2.29s-5.44,14.96-5.44,14.96h3.04s.9-2.65.9-2.65ZM128.35,14.69l1.83,5.44h-3.72s1.89-5.44,1.89-5.44Z"/>
  <polygon points="130.9 42.43 123.97 42.43 123.97 38.79 129.87 38.79 129.87 36.19 123.97 36.19 123.97 32.68 130.9 32.68 130.9 30.08 121.05 30.08 121.05 45.03 130.9 45.03 130.9 42.43"/>
  <rect x="137.36" y="49.88" width="2.92" height="14.96"/>
  <path d="M239.1,32.56c1.47,0,2.23.92,2.52,2.12h2.96c-.52-3.13-2.71-4.73-5.51-4.73-1.64,0-2.98.59-4.03,1.64-1.52,1.51-1.47,3.38-1.47,5.97,0,2.58-.05,4.45,1.47,5.97,1.05,1.05,2.39,1.64,4.03,1.64,2.77,0,4.98-1.6,5.51-4.73h-2.96c-.29,1.2-1.05,2.12-2.52,2.12-.8,0-1.45-.3-1.87-.78-.57-.63-.74-1.34-.74-4.22,0-2.88.17-3.59.74-4.22.42-.48,1.07-.78,1.87-.78Z"/>
  <polygon points="130.95 59.04 125.03 49.88 122.42 49.88 122.42 64.84 125.34 64.84 125.34 55.65 131.27 64.84 133.87 64.84 133.87 49.88 130.95 49.88 130.95 59.04"/>
  <polygon points="154.48 25.23 157.38 25.23 157.38 19.1 161.88 10.28 158.71 10.28 155.95 16.31 153.16 10.28 149.99 10.28 154.48 19.1 154.48 25.23"/>
  <polygon points="149.21 64.84 154.17 49.88 151.12 49.88 148.12 59.62 145.11 49.88 142.09 49.88 147.03 64.84 149.21 64.84"/>
  <path d="M168.69,64.84h2.92v-5.97s2.1,0,2.1,0l2.92,5.97h3.38s-3.34-6.45-3.34-6.45c1.45-.52,2.73-1.83,2.73-3.93,0-2.5-1.81-4.58-4.85-4.58h-5.86v14.96ZM171.61,52.48h2.76c1.28,0,2.12.82,2.12,1.97,0,1.16-.84,1.98-2.12,1.98h-2.76s0-3.95,0-3.95Z"/>
  <polygon points="179.17 16.05 185.09 25.23 187.7 25.23 187.7 10.28 184.78 10.28 184.78 19.43 178.86 10.28 176.25 10.28 176.25 25.23 179.17 25.23 179.17 16.05"/>
  <path d="M199.68,37.55c0,2.58-.04,4.45,1.47,5.97,1.05,1.05,2.36,1.64,4.06,1.64,1.7,0,2.98-.59,4.04-1.64,1.51-1.51,1.49-3.38,1.49-5.97s.02-4.45-1.49-5.97c-1.05-1.05-2.33-1.64-4.04-1.64-1.7,0-3.01.59-4.06,1.64-1.51,1.51-1.47,3.38-1.47,5.97ZM203.32,33.35c.42-.48,1.09-.8,1.89-.8.8,0,1.45.31,1.87.8.57.63.74,1.32.74,4.2,0,2.88-.17,3.57-.74,4.2-.42.48-1.07.8-1.87.8-.8,0-1.47-.32-1.89-.8-.57-.63-.71-1.32-.71-4.2,0-2.88.14-3.57.71-4.2Z"/>
  <polygon points="263.22 42.43 263.22 30.08 260.3 30.08 260.3 45.03 270 45.03 270 42.43 263.22 42.43"/>
  <polygon points="206.97 64.84 206.97 52.48 210.88 52.48 210.88 49.88 200.14 49.88 200.14 52.48 204.05 52.48 204.05 64.84 206.97 64.84"/>
  <path d="M192.16,23.72c1.05,1.05,2.4,1.64,4.04,1.64,1.59,0,3.03-.46,4.22-1.7,1.05-1.09,1.43-2.39,1.43-4.56v-2.19h-5.65v2.44h2.75s0,.57,0,.57c0,.78-.19,1.45-.67,2-.49.52-1.2.84-2.08.84-.8,0-1.45-.3-1.87-.78-.57-.63-.71-1.35-.71-4.22,0-2.88.14-3.57.71-4.2.42-.48,1.07-.8,1.87-.8,1.49,0,2.35.78,2.69,2.19h2.94c-.4-2.52-2.16-4.79-5.63-4.79-1.68,0-2.99.59-4.04,1.64-1.51,1.51-1.47,3.38-1.47,5.97,0,2.58-.04,4.45,1.47,5.97Z"/>
  <path d="M186.59,62.36c-1.39,0-2.67-.31-3.61-1.26l-1.89,1.89c1.47,1.49,3.19,1.98,5.46,1.98,3.13,0,5.55-1.64,5.55-4.54,0-1.33-.36-2.42-1.15-3.17-.63-.59-1.49-.96-2.86-1.15l-1.76-.25c-.61-.08-1.09-.32-1.38-.59-.32-.29-.44-.69-.44-1.07,0-1.03.76-1.89,2.31-1.89.99,0,2.12.13,3.07,1.03l1.85-1.83c-1.28-1.24-2.77-1.75-4.83-1.75-3.24,0-5.21,1.87-5.21,4.54,0,1.26.36,2.23,1.07,2.94.67.65,1.62,1.05,2.9,1.24l1.81.25c.7.11,1.03.25,1.32.53.32.29.47.73.47,1.26,0,1.2-.93,1.85-2.65,1.85Z"/>
  <polygon points="198.36 42.43 191.57 42.43 191.57 30.08 188.65 30.08 188.65 45.03 198.36 45.03 198.36 42.43"/>
  <rect x="194.85" y="49.88" width="2.92" height="14.96"/>
  <polygon points="165.83 52.48 165.83 49.88 155.98 49.88 155.98 64.84 165.83 64.84 165.83 62.23 158.9 62.23 158.9 58.59 164.8 58.59 164.8 55.99 158.9 55.99 158.9 52.48 165.83 52.48"/>
  <path d="M176.42,43.52c1.05,1.05,2.35,1.64,4.05,1.64,1.7,0,2.99-.59,4.04-1.64,1.51-1.51,1.49-3.38,1.49-5.97,0-2.58.02-4.45-1.49-5.97-1.05-1.05-2.33-1.64-4.04-1.64-1.7,0-3,.59-4.05,1.64-1.52,1.51-1.47,3.38-1.47,5.97,0,2.58-.05,4.45,1.47,5.97ZM178.59,33.35c.42-.48,1.09-.8,1.89-.8s1.45.31,1.87.8c.57.63.73,1.32.73,4.2,0,2.88-.17,3.57-.73,4.2-.42.48-1.07.8-1.87.8-.8,0-1.47-.32-1.89-.8-.57-.63-.71-1.32-.71-4.2,0-2.88.14-3.57.71-4.2Z"/>
  <polygon points="171.96 45.03 171.96 30.08 169.05 30.08 169.05 39.24 163.12 30.08 160.51 30.08 160.51 45.03 163.44 45.03 163.44 35.85 169.36 45.03 171.96 45.03"/>
  <path d="M214.02,43.52c1.05,1.05,2.4,1.64,4.04,1.64,1.6,0,3.02-.46,4.23-1.7,1.05-1.09,1.43-2.4,1.43-4.56v-2.19h-5.65v2.44h2.75s0,.57,0,.57c0,.78-.19,1.45-.67,2-.48.52-1.19.84-2.08.84-.8,0-1.45-.3-1.87-.78-.57-.63-.71-1.34-.71-4.22,0-2.88.14-3.57.71-4.2.42-.48,1.07-.8,1.87-.8,1.49,0,2.35.78,2.69,2.18h2.94c-.4-2.52-2.16-4.79-5.63-4.79-1.68,0-2.98.59-4.04,1.64-1.52,1.51-1.47,3.38-1.47,5.97,0,2.58-.05,4.45,1.47,5.97Z"/>
  <path d="M250.69,30.08l-5.44,14.96h3.04s.91-2.65.91-2.65h5.32s.88,2.65.88,2.65h3.04s-5.46-14.96-5.46-14.96h-2.29ZM250.02,39.93l1.89-5.44,1.83,5.44h-3.72Z"/>
  <path d="M164.26,25.23l.9-2.65h5.31s.88,2.65.88,2.65h3.05s-5.47-14.96-5.47-14.96h-2.29s-5.44,14.96-5.44,14.96h3.05ZM167.87,14.69l1.83,5.44h-3.72s1.89-5.44,1.89-5.44Z"/>
  <path d="M163.55,77.19l-4.46,12.25h2.5s.74-2.17.74-2.17h4.35s.72,2.17.72,2.17h2.49s-4.47-12.25-4.47-12.25h-1.87ZM163,85.26l1.55-4.46,1.5,4.46h-3.04Z"/>
  <path d="M49.64,52.65s.05.04.08.06c0,0,.02.01.03.02.02.01.04.02.05.03,0,0,.02,0,.02.01.02.01.04.02.05.02.1.04.58.09.58.09.52.71.98.32,1.07.22.1-.1.42-.3.71-.33.29-.03.6-.15.66-.33,0-.02,0-.05,0-.08,0-.02,0-.04,0-.07-.02-.32-.2-.97-.31-1.37-.13-.48.11-.77.11-.77.28.26.51.28.9.19.38-.09.52-.65.52-.65.18-.14.51.08.51.08l.24-.13s-.76-.48-.99-.5c-.23-.02-1.04.43-1.16.48-.03.01-.07.04-.11.07-.14.12-.33.35-.32.75v.03c.02.51.19.96.34,1.58.03.13.03.22.02.3l-.08-.03c-.63-.53-2.91-.35-2.91-.35l-.05-.02c.12-.37.42-.84.63-1.17.12-.19.22-.32.22-.35.02-.07-.14-.2-.09-.3,0-.01.01-.03.03-.04.12-.09.16-.33.16-.33-.02-.04-.05-.07-.07-.11-.19-.25-.57-.5-.89-.65-.04-.02-.06-.03-.09-.04-.09-.04-.17-.07-.23-.08-.31-.06-.95.3-.95.3l.31.12.28-.12c-.05.51.24.93.66.97.41.04.7-.35.7-.35,0,0,.03.01-.05.16-.08.15-.02.42-.02.42,0,0-.81,1.27-.89,1.66-.02.1,0,.19.05.28h0s.04.07.07.11c0,.01.02.02.03.04.02.02.04.04.06.06.01.01.02.02.03.03.03.03.05.05.08.07,0,0,.01,0,.02.01ZM53,49.76s.15.14.21.18c.06.03.13.06.19.04.17-.06.21-.28.17-.44,0,0,.17-.07.25,0,0,0,.07.36-.2.54-.18.11-.39.14-.57.05,0,0,0,0,0,0,0,0-.03-.01-.05-.03,0,0,0,0,0,0-.05-.03-.11-.09-.14-.18l.15-.13ZM49.4,49.92c-.18-.08-.25-.24-.26-.39,0,0,0,0,0,0v-.1s0-.06,0-.08c0-.06.01-.13.03-.15l.27.09s-.04.09-.06.17v.05s0,.01,0,.02c0,.07.04.15.13.21.26.15.33-.2.33-.2,0,0,.19.09.2.18,0,0-.23.39-.63.22Z"/>
  <path d="M49.13,55.19c.06,1.01.34,1.89.34,1.89,0,0,.09,1,.73.7.11-.05.19-.09.26-.13.39-.19.46-.2,1.01.15,0,0,0,0,0,0,.65.41.76.14.76.14.98-1.75.89-3.13.89-3.13,0,0-1.01-.86-1.88-1.2-.86-.33-2.28.84-2.28.84-.05.28.15.73.15.73ZM51.63,57.57l.21-.94s.22.55.3.94c.08.39-.51,0-.51,0ZM52.17,54.39s.09-.11.47.32c0,0-.27.5-.72.5,0,0,.25-.49.25-.83ZM51.05,55.66s.11-.32.59-.1c.47.22.45,1.18.45,1.18,0,0-.05-.14-.16-.28-.1-.15-.35-.12-.34.11,0,.23-.17.75-.17.75-.32-.32-.92-.12-.92-.12,0,0-.09-.03-.17-.5-.09-.47-.18-.56-.18-.56.34-.87.9-.48.9-.48ZM50.03,56.56s.05-.1.06-.15c.02.15.04.31.06.46.03.14.05.38.17.48,0,0-.29.18-.32.19-.06.02-.16.04-.2-.01-.09-.11.02-.33.05-.45.04-.12.08-.24.12-.35.02-.06.05-.12.07-.17ZM49.93,54.07s-.11.8,0,1.07c0,0-.13.21-.63-.61,0,0,.23-.4.63-.46Z"/>
  <path d="M52.78,53.44c.41-.01.81,0,1.2.02.5.03.98.08,1.43.15v-.14c-.54-.06-1.03-.08-1.44-.08-.72,0-1.19.05-1.19.05Z"/>
  <path d="M49.58,52.83s-.29-.2-.8-.46c-.47-.24-1.14-.53-1.94-.75l-.04.15c.58.15,1.2.36,1.87.64.3.13.6.26.91.42Z"/>
  <path d="M47.05,52.89l.09-.19c-.14,0-.3,0-.46.02l.03.18c.11,0,.23-.01.34-.01Z"/>
  <path d="M63.29,13.38c-3.16,0-5.72,2.55-5.72,5.69,0,3.14,2.57,5.69,5.72,5.69,3.15,0,5.72-2.55,5.72-5.69,0-3.14-2.57-5.69-5.72-5.69ZM66.02,14.42l-.7,1.12c-.29-.17-.6-.29-.93-.39l.32-1.28c.46.12.9.31,1.3.54ZM65.27,19.02c0,1.11-.9,2.02-2.02,2.02s-2.01-.9-2.01-2.02c0-1.11.9-2.02,2.01-2.02,1.11,0,2.02.9,2.02,2.02ZM63.29,13.68c.39,0,.77.04,1.14.12l-.32,1.28c-.17-.03-.47-.08-.84-.08-.08,0-.15,0-.23.01l-.14-1.31c.13-.01.25-.02.39-.02ZM61.31,14.06c.41-.16.85-.27,1.29-.33l.14,1.31c-.38.05-.75.15-1.07.32l-.24-.5-.34-.7c.06-.03.14-.07.23-.11ZM60.38,14.53s.04-.02.06-.03c.11-.07.24-.14.37-.2l.34.69.26.52c-.17.09-.33.2-.48.31-.12.08-.23.17-.33.25l-1.06-.83c.14-.16.45-.45.84-.71ZM58.82,16.02c.14-.21.31-.4.48-.59l1.09.85s-.04.05-.06.08c-.22.25-.42.52-.57.82l-1.24-.62c.1-.2.21-.38.31-.54ZM58.39,16.83l1.24.62s0,0,0,.01c0,0,0,.01-.01.02-.17.38-.25.71-.29.89l-1.33-.23c.1-.52.25-.95.41-1.32ZM57.87,19.07c0-.21.01-.42.04-.63l1.41.24c0,.12-.02.24-.02.36,0,.19.02.37.05.55l-1.42.26c-.04-.25-.06-.51-.06-.77ZM63.29,24.46c-2.62,0-4.81-1.86-5.32-4.32l1.42-.26c.39,1.82,2,3.19,3.94,3.19,2.22,0,4.03-1.81,4.03-4.03,0-1.39-.71-2.61-1.78-3.34l.7-1.12c1.47.97,2.43,2.62,2.43,4.49,0,2.97-2.43,5.39-5.42,5.39Z"/>
  <path d="M49.27,53.07s-.39-.21-1.13-.32c-.25-.04-.55-.06-.89-.06v.19c.25,0,.52,0,.79.02.4.03.81.08,1.23.17Z"/>
  <path d="M47.25,63.75s.57-.27,1.14-.58c.32.66.72,1.08,1.21,1.58l.21.22c.25.26.43.54.53.83.06.16.07.31.08.49,0,.1,0,.21.02.32v.04c-.08,1.24-.25,2.74-.38,3.71-.13.97-.88,3.13-.89,3.15-.13.34-.54,1.31-.89,1.65-.35.34-1,.63-1.57.88-.12.06-.24.11-.36.16-.71.33-.98.66-1.01,1.27,0,.01,0,.03,0,.04-.25.77.03,1.12.06,1.16l.17.19.09-.24c.05-.15.24-.3.45-.41.08.03.16.06.2.09-.11.29-.15.69.1,1.13l.15.28.12-.3s.14-.35.44-.49c.17.15.39.21.53.22h.06c.02.18.07.36.18.55l.16.28.12-.3s.11-.28.35-.44c.01,0,.03,0,.05.01.16.03.31.05.44.05.14,0,.26-.02.35-.06.02.16.05.3.13.41.12.17.27.19.29.2l.13.02.04-.13c.05-.19.18-.36.31-.5.05,0,.11.01.17.01.55.01.68-.07.98-.27l.05-.03c.06-.04.14-.06.24-.08.25-.05.64-.14.73-.79.08-.56.22-.81.25-.86.43-.4.69-.48.84-.48.08,0,.14.03.19.08.2.21.25.74.24.9v.77s.42-.64.42-.64c.62-.94.36-2.26.29-2.58,0,0,.01,0,.03,0,.1,0,.3.11.41.38.26.64.78,1.13.81,1.15l.44.41-.06-.6s-.05-.51.04-1.7c.05-.6,0-1.09-.08-1.44.03.07.06.14.08.24.21.84.76,1.16.78,1.18l.34.19v-.67c0-.18.01-.36.01-.54,0-.22.04-.44.08-.67.02-.14.05-.29.07-.44.04-.33.02-.67-.04-1-.05-.22-.11-.45-.21-.72,0-.02-.02-.05-.03-.07.1.08.24.21.43.41.47.53.94.61,1.17.61.11,0,.18-.02.2-.02l.38-.1-.27-.28c-.41-.42-.63-1-.71-1.86-.06-.76-.63-1.49-.9-1.8.85-1.02.87-1.27.82-1.43l-.18-.75c.26.11.61.21,1.03.32.73.17.86,1.1.86,1.11l.12.95.32-.9c.24-.66.21-1.34.14-1.82.28.16.67.32,1.19.39,1.08.14,1.79.38,1.8.38l.69.24-1.32-1.79c.29.09.64.17.99.19.44.03.76,0,.96-.06,0,.12.02.25.05.37.18.78.67,1.39,1.13,1.99l.14.18c.43.55.97,1.29,1.36,2.07.42.85.37,1.45-.18,1.93-1.13,1.01-4.2,2.32-4.22,2.32-.07.02-1.61.56-1.52,1.58-.6.62-.42,1.21-.41,1.23l.09.25.18-.2c.14-.17.38-.27.58-.33.07.06.14.1.23.11-.08.23-.08.49.09.75l.14.21.12-.22s.22-.39.53-.39c.06,0,.12.02.18.04l.07.03c-.02.16,0,.36.05.61l.06.24.19-.17s.28-.25.63-.45h.05c.06.04.21.1.43.1.1,0,.19-.01.29-.03,0,.18.04.37.15.56l.18.3.1-.33s.11-.36.45-.52l.07.04c.07.05.28.18.58.18.15,0,.31-.04.46-.1.57-.25,1-.9,1.16-1.17.13-.22.3-.36.35-.37,0,0,.02.02.05.07.18.38.06.9.06.9l-.12.51.45-.25s.57-.32.81-.88c.14.34.24.79.07,1.21l-.36.85.72-.58c.06-.05,1.1-.91,1.4-2.08l.46,1.19.22-.51s.51-1.17.7-1.55c.21-.43.31-1.66-.17-2.32l-.05-.07c.14-.17.32-.48.22-.86-.04-.17-.19-.42-.43-.83-.38-.64-.96-1.62-.92-2.2v-.02s0-.01,0-.01c0-.01-.08-1.17.47-1.91.5.96,1.39,1.64,2.57,1.95,1.41.38,2.39.94,2.82,1.62.43.69,1.01,2.83.93,4.61-.04.69-.32,1.62-1.5,2.12l-.04.02s-.07.02-.13.04c-.37.1-1.21.34-1.15,1.16-.59.73-.28,1.14-.27,1.16l.14.18.11-.21c.11-.22.42-.33.64-.38.07.02.14.02.22.02.05,0,.09,0,.13,0-.14.53.03.78.06.81l.17.2.09-.25c.05-.13.28-.28.52-.39.23.06.46.09.63.1-.06.26-.05.45.02.57.06.1.15.14.21.14h.1s.05-.09.05-.09c.11-.23.29-.37.44-.45.17.03.33.05.47.05.27,0,.47-.06.62-.13.02.19.07.34.16.45.12.15.26.17.28.17h.14s.03-.12.03-.12c0-.07.04-.12.06-.18.05,0,.09,0,.13,0,.12,0,.25-.01.39-.03,1.25-.2,1.31-1.6,1.33-2.28,0-.1,0-.18.01-.25.02-.26.31-.61.57-.86.17.19.39.37.67.51h.03c.18.11.4.23.62.25l.48.05-.27-.4c-.17-.25-.22-.47-.19-.81.08-.89-.2-1.45-.47-1.77.2.02.37.12.5.28.51.62.95.87.96.88l.46.26-.12-.51s-.09-.41-.13-1.74c-.02-.96-.63-1.52-1.16-1.79.11-.05.24-.09.4-.09.2,0,.42.07.65.21.45.27.83.41,1.13.41.29,0,.42-.12.46-.16l.28-.31-.41-.07c-.36-.06-.52-.39-.74-.92-.27-.64-.61-1.43-1.65-1.48-.95-.05-1.38-.21-1.56-.3.17-.35.3-.93.18-1.36-.08-.31-.26-.43-.4-.49-.1-.04-.22-.05-.32-.06-.06,0-.11,0-.16-.02-.49-.12-1-.34-1.61-.7-1.36-.82-1.43-1.79-1.45-3.91-.01-1.19-.18-2.11-.32-2.7.62.39,1.25.49,1.73.49.52,0,.89-.12.9-.12l.78-.25-.8-.19c-.3-.07-.52-.21-.63-.41-.03-.05-.05-.09-.07-.14.45.35,1.09.52,1.92.52,1.14,0,2.23-.34,2.27-.36l.62-.19-.6-.24c-.75-.3-1.28-.67-1.59-.94,2.2-.19,3.52-.62,3.9-.76,0,0,.01,0,.02,0h0s0,0,0,0c.07.04.15.08.23.1.25.09.51.16.8.24.14.04.3.08.45.11.48.11.98.23,1.36.52.11.08.21.19.3.29.08.08.15.16.24.24l.4.41.08-.45c.04-.23,0-.48-.02-.71l-.02-.16c-.03-.31-.07-.58-.14-.82-.11-.42-.28-.79-.49-1.08-.15-.21-.32-.38-.5-.51.38-.48.67-1.05.94-1.56.67-1.28.38-2.58.03-3.45-.15-.36-.38-.74-.73-1.19-1.3-1.67-3.22-2.48-5.85-2.48-2.19,0-4.5.57-6.36,1.02-.74.18-1.48.38-2.23.57-1.98.52-4.02,1.06-6.07,1.34-.71.1-1.34.14-1.91.14-1.22,0-2.22-.21-3.07-.65-.55-.28-.97-.64-1.24-1.05-.38-.57-.47-1.08-.27-1.55.45-1.08,2.44-1.82,4.15-2.15.84-.16,1.69-.25,2.52-.25,1.36,0,2.65.22,3.83.65.41.15.83.33,1.23.51,1.06.46,2.15.94,3.33.94h.08c.98-.02,1.9-.37,2.78-.71.24-.09.47-.18.7-.26.14-.05.26-.09.38-.14.35-.13.58-.22,1.04-.27.6-.06,1.21-.02,1.72.1l.43.1-.17-.41c-.03-.07-.06-.14-.1-.21-.5-.89-1.63-1.26-2.25-1.4-.03,0-.06-.01-.09-.02.16-.09.32-.19.46-.3.23-.17.43-.37.62-.56.15-.15.29-.3.46-.43.41-.34.87-.57,1.32-.68.11-.03.23-.04.34-.04.08,0,.15-.01.23-.02,2.8-.35,3.25-1.61,3.27-1.66l.16-.48-.47.2s-.71.3-1.68.3c-.61,0-1.2-.11-1.75-.33-.38-.15-.76-.25-1.15-.3-.51-.07-1.03-.05-1.52.06-.53.11-.95.28-1.4.5-.25.12-.56.29-.82.46-.15.1-.25.18-.34.25-.08.06-.15.12-.24.18.04-.09.07-.19.1-.29l.02-.07c.19-.57.31-1.21.35-1.9l.09-1.24-.52,1.13c-.9,1.96-2.9,2.12-2.96,2.13,0,0-.04,0-.11,0-.51,0-2.26.11-3.63,1.54-.36.37-.74.67-1.14.88-.42.22-.8.27-1.25.32-.48.05-1.05.07-1.66.09-3.27.13-7.73.31-8.25,3.98-.27,1.87.58,3.27,2.66,4.4,1.18.64,2.57.74,3.66.76h.05c.49,0,.95-.1,1.4-.2.44-.1.85-.19,1.28-.19h.06c.17,0,.28.04.32.09.06.1-.11.31-.3.44-.5.35-1.04.65-1.59.89l-.57.25.6.18c1,.29,2.16.14,3.1-.4.31-.18.6-.41.87-.64.22-.18.43-.35.64-.49-.05.23-.14.5-.26.77-.11.25-.62.65-1.01.85l-.62.33.7.1c.09.01.2.02.31.02.53,0,1.04-.17,1.32-.26l.09-.03c.44-.14.87-.32,1.28-.54.41-.22.81-.47,1.17-.75.08-.06.15-.11.24-.17.16-.12.34-.24.5-.39.34.72.83,1.19,1.52,1.46.8.32,1.68.35,2.46.37l.69.02-.54-.43c-.61-.48-1.13-.93-1.3-1.55-.15-.56.03-1.22.47-1.73.38-.44.94-.78,1.67-1.01,1.47-.47,3.16-.36,4.56.3,1.1.52,1.86,1.33,2.09,2.23.22.87-.06,1.87-.72,2.64-.73.85-1.76,1.24-2.49,1.43-.71.18-1.49.26-2.55.26-.14,0-.29,0-.43,0-.52-.01-1.06-.03-1.62-.06-1.51-.09-3.12-.27-5.05-.56-.74-.11-1.54-.24-2.52-.41-.17-.03-.33-.06-.5-.09-.61-.11-1.24-.23-1.88-.23-.17,0-.34.01-.49.03-.61.07-1.25.24-2.02.56-.62.25-1.43.37-2.44.37-.98,0-1.88-.12-2.31-.19l.53-.35-.97.12c-.11.01-.22.02-.33.02-2.26,0-2.87-3.18-3-4.07.84-.1,1.22-.61,1.24-.63l.29-.41-.5.04c-1.18.11-1.97-1.71-2.41-3.24-.27-.94-.66-1.54-1-1.92l.76.67-.51-1.03c-.72-1.45-1.59-1.75-2.2-1.75-.28,0-.52.06-.69.13-.24-1.13-1.31-1.64-1.89-1.76l-.4-.08.14.38c.25.67.18,1.07.07,1.29-.42-.69-1.58-1.24-2.24-1.32-.29-.03-.58-.13-.94-.3-.16-.08-.42-.2-.66-.59l-.6-.99.18,1.14c.09.57.47,1.36.76,1.69-.1,0-.21,0-.31.03-.14.03-.29.05-.43.05-.77,0-1.19-.47-1.21-.49l-.55-.64.15.83c.06.35.26.69.6,1.03.13.13.27.25.42.37-.05,0-.1,0-.14,0h-.1c-.5,0-.95.11-1.35.32-.24.12-.44.28-.62.46-.05.05-.09.11-.13.17l-.29.42h.45c.09,0,.17,0,.25-.01-.13.08-.26.17-.39.27-.02.02-.09.09-.17.18-.07.08-.19.22-.24.27-.39,0-.71.15-.96.45-.35.42-.49.94-.39,1.4,0,0,.09.29.22.52-1.66,1.2-1.81,2.49-1.82,2.56l-.11,1.11.54-.98c.13-.23.29-.34.44-.4-.52,1.44-1.24,1.6-1.53,1.6-.11,0-.18-.02-.18-.02l-1.64-.56,1.44.97c.38.26.87.39,1.44.39.24,0,.47-.02.67-.06-.29.48-.57,1.25-.54,2.44,0,.09,0,.17,0,.26-.55-.41-1.11-.89-1.57-1.43-1.12-1.32-1.37-2.23-1.51-2.77-.03-.09-.05-.18-.07-.25-.1-.33-.03-.96.03-1.46.02-.18.04-.36.05-.51.04-.49-.17-.78-.27-.88-.13-.14-.28-.2-.41-.18-.02-.15-.08-.32-.19-.47-.2-.28-.53-.44-.99-.47l-.35-.03.22.27s.3.39.34.72c-.07,0-.13.02-.19.05-.02.01-.05.03-.06.04-.15-.43-.52-.47-.63-.47,0,0-.02,0-.03,0-.15-.19-.44-.39-1.01-.52l-.45-.1.31.35c.07.08.21.28.29.51-.01,0-.03,0-.04.01-.14.06-.25.17-.3.31-.09.24-.03.54.08.83-.04-.05-.07-.1-.1-.14-.14-.18-.32-.27-.55-.27-.17,0-.32.05-.42.1-.19-.14-.44-.28-.7-.28-.18,0-.34.07-.48.2l-.14.14.16.1c.1.06.3.23.45.44-.06.09-.09.19-.09.31-.03.36.18.75.55,1.02.21.16.38.36.49.53-.16-.08-.34-.17-.51-.26l-.11-.06-.11.06s-.14.07-.28.2c-.25-.11-.52-.35-.62-.45l-.21-.22-.05.3c-.1.59.14.98.41,1.21,0,.08-.01.17,0,.26.06.75.88.93,1.17.97.53.65.86.79,1.19.94.08.04.17.08.26.12.19.1.28.17.32.21h0s.05.08.05.08c0,0,.46.85.5,1.44.04.53-.52.99-1.26,1.05-1,.09-1.26.51-1.29.55l-.14.25.27.08s.75.24,1.59.68c.58.3,1.29.46,1.73.54-.33.34-.91.85-1.54.97-.71.14-1.08.44-1.09.46l-.38.33.5.07s.8.12,1.94.85c.48.3,1,.46,1.55.46.17,0,.33-.02.46-.04-.14.21-.33.44-.56.57-.57.33-1.08.61-1.08.61l-.68.37,2.01.14c.43.07.83.1,1.2.1.77,0,1.24-.15,1.49-.23.06-.02.14-.04.15-.05.08.01.26.23.34.32.06.08.12.14.17.19.37.34.79.68,1.35.79.81.16,1.73.02,2.77-.43ZM65.09,64.06c-.33-.22-.5-.55-.59-.78l.81.07c-.09.24-.17.48-.22.71ZM71.46,68.1c-.04.72.56,1.71.99,2.44.04.06.07.12.11.18.01.02.03.05.04.07.02.04.04.07.06.11.01.03.03.06.05.08.03.05.05.1.07.14h0c.03.06.05.1.05.14,0,.02,0,.04,0,.06h0v.02c0,.05,0,.1-.02.15h0c-.01.05-.04.1-.06.14-.05.04-.14.13-.28.24h0c-.29.25-.77.66-1.29,1.09-.29.25-.61.51-.91.76h0c-.83.7-1.57,1.32-1.7,1.43-.26.12-.45.42-.52.53-.22.37-.59.82-.95.98-.09.04-.19.06-.28.06-.07,0-.13-.01-.18-.03-.02-.27-.17-.72-.6-.72-.03,0-.06,0-.09,0,.05-.05.1-.1.16-.15.22-.19.49-.41.65-.59.17-.18.26-.32.26-.32,0,0-.16.05-.38.16-.11.05-.24.12-.36.2-.13.08-.26.17-.4.28-.06.06-.12.12-.18.19-.06.06-.1.14-.15.21-.09.14-.13.3-.14.43h0s-.02.05-.02.07c-.13.05-.26.08-.38.08-.06,0-.1,0-.14-.02,0-.14-.04-.37-.17-.51-.09-.09-.19-.13-.33-.12.03-.03.06-.05.09-.07.09-.08.21-.15.32-.24.1-.08.2-.16.28-.24.16-.15.24-.27.24-.27,0,0-.15.02-.35.1-.1.03-.22.08-.34.14-.12.05-.25.13-.38.22-.12.09-.23.21-.31.33-.06.09-.1.19-.13.29,0-.14-.03-.29-.11-.4-.05-.06-.12-.13-.24-.16.05-.04.11-.07.17-.11.09-.06.16-.12.23-.18.13-.12.2-.23.2-.23,0,0-.13,0-.3.04-.09.02-.18.05-.28.09-.09.03-.2.09-.31.15-.09.06-.17.13-.23.21,0-.15-.02-.27-.09-.38-.14-.2-.38-.25-.54-.26.19-.54,1.17-.89,1.19-.9.13-.05,3.17-1.35,4.36-2.41.7-.63.79-1.44.28-2.48-.4-.81-.96-1.57-1.4-2.15l-.14-.18c-.43-.56-.88-1.14-1.04-1.82-.04-.16-.05-.32-.04-.48l.24-.15-.19-.07h-.02c.04-.26.13-.53.23-.8,0,0,0,0,0-.01,0-.03.02-.06.03-.08l.28.02,2.37.18-1.37-1.23c.34-.08.72-.13,1.11-.13,1.6,0,3.1.69,3.26.79.14.12.37,1.18.57,2.11.04.2.09.39.16.57-.79.83-.73,2.21-.72,2.39ZM60.62,55.7c.15.02.3.03.46.03,1.09,0,2.12-.5,2.58-.76.04.01.09.02.12.04l.07.02s1.26.24,2.65.24c1.06,0,1.94-.14,2.61-.41.73-.3,1.34-.46,1.9-.53.14-.01.29-.02.44-.02.59,0,1.2.11,1.8.22.17.03.34.06.51.09.98.17,1.78.3,2.53.41,1.95.29,3.57.47,5.09.56.56.03,1.11.05,1.64.06.14,0,.29,0,.44,0,1.09,0,1.91-.08,2.66-.27,1.14-.28,2.08-.83,2.73-1.57.76-.87,1.07-2.04.81-3.05-.26-1.03-1.11-1.95-2.34-2.53-1.4-.66-3.08-.8-4.58-.4l-12.59,2.7h0c-.27.05-.53.1-.78.16-.44.1-.86.19-1.3.19h-.05c-.95-.01-2.35-.1-3.45-.7-1.92-1.05-2.67-2.26-2.44-3.94.47-3.29,4.71-3.46,7.82-3.58.61-.03,1.19-.05,1.68-.1.08,0,.16-.02.24-.02-.31.17-.47.43.28.74-.62-.1-1.24-.14-1.89-.14-.86,0-1.73.08-2.6.25-1.14.22-3.84.89-4.49,2.43-.25.61-.15,1.28.31,1.97.32.48.79.88,1.41,1.2.92.47,1.99.7,3.28.7.59,0,1.24-.05,1.98-.15,2.08-.28,4.13-.82,6.13-1.35.74-.19,1.47-.39,2.22-.57,1.83-.45,4.11-1.01,6.25-1.01,2.48,0,4.28.75,5.49,2.31.32.41.53.75.67,1.08.32.78.58,1.94-.01,3.08-.17.32-.34.64-.53.95-.42.84-1.24,1.43-2.12,1.85-.1.05-.19.1-.3.15h0s-.34.14-.34.14c0,0-.43.17-1.24.36-.78.2-1.42.29-1.62.33-.31.07-1.53.09-2.86.09-1.5.02-2.8-.02-3.5-.04-.3,0-.48-.01-.48-.01.05,0,.1,0,.15,0-.16,0-.24-.01-.24-.01,0,0,.26.57.51,1.12l.25.63s.49,1.25.52,3.28c.02,1.99.04,3.31,1.67,4.3.65.39,1.2.63,1.74.75.07.02.14.03.22.03.07,0,.15.01.2.03.02,0,.09.03.13.18.09.35-.07.97-.22,1.16l-.1.12h-.02c0,.08-.19,2.06.38,7.08-.25.24-.71.72-.75,1.19,0,.07-.01.16-.02.27-.03.78-.14,1.62-.83,1.82v-.1c-.07-.51-.38-.58-.57-.58-.15,0-.3.05-.41.1.07-.09.15-.17.24-.25.19-.17.43-.37.56-.54.14-.17.22-.3.22-.3,0,0-.15.04-.35.14-.1.05-.21.11-.33.18-.11.07-.23.15-.35.26-.05.06-.11.11-.16.17-.05.06-.09.13-.13.19-.07.13-.11.27-.11.39,0,.03,0,.05,0,.07-.07.06-.2.14-.48.14h0c-.09-.51-.43-.57-.58-.57-.09,0-.18.02-.25.04.08-.14.18-.28.31-.42.08-.1.19-.19.28-.3.09-.1.17-.2.24-.29.14-.18.2-.32.2-.32,0,0-.15.05-.34.17-.1.06-.21.13-.32.21-.11.07-.23.17-.33.3-.1.12-.19.26-.25.4-.06.14-.09.28-.09.4,0,.05,0,.08,0,.12,0,.01,0,.03-.01.04-.14,0-.28-.02-.41-.04-.08-.37-.37-.54-.67-.57h0c.07-.07.15-.14.23-.22.07-.08.14-.15.19-.22.1-.14.15-.26.15-.26,0,0-.13.03-.28.1-.08.04-.17.08-.26.14-.09.05-.19.12-.28.21-.06.06-.11.13-.15.2,0,0,0,0,0-.01-.1-.24-.42-.33-.62-.37.09-.23.38-.36.79-.47.09-.02.15-.04.19-.06h.03c1.09-.47,1.72-1.37,1.78-2.53.08-1.75-.46-4.02-1-4.87-.49-.78-1.56-1.41-3.09-1.82-1.4-.38-2.33-1.31-2.61-2.64-.33-1.56-.47-2.1-.68-2.33-.02-.06-.03-.11-.05-.17-.1-.34-.24-.69-.39-1.03-.16-.34-.33-.68-.54-.97-.09-.15-.21-.28-.32-.41-.1-.13-.22-.23-.33-.32-.1-.1-.23-.17-.33-.23-.05-.03-.09-.06-.14-.08-.05-.02-.09-.03-.13-.05-.15-.06-.24-.08-.24-.08,0,0,.08.06.21.14.04.02.07.05.11.07.03.03.07.07.11.11.08.08.17.15.25.26.09.11.18.21.27.34.09.13.18.26.26.41.09.14.17.3.25.46.09.16.16.32.24.49.13.27.24.55.35.82-.32-.14-.85-.34-1.47-.49-.52-.12-1.1-.22-1.71-.22-.4,0-.77.05-1.13.12-.06,0-.11,0-.17.01-2.61.02-8.42,1.69-9,1.86.02-.12.04-.24.05-.34.02-.08.03-.15.04-.2,0-.05.01-.08.01-.08,0,0-.03.01-.07.04-.05.03-.11.08-.17.15-.02.02-.04.05-.06.08-.04.06-.07.11-.1.18-.05.11-.07.22-.09.34-.01.12-.02.24,0,.35,0,.03,0,.06.01.09,0,.1,0,.2.02.31.05.37.17.74.23.91l.22.97c-.04.09-.19.39-.85,1.17l-.11.13h0s-2.8,3.82-4.32,8.55c-.03.07-.05.13-.08.2,0,0-.07.05-.17.15-.04.03-.07.06-.11.09l-.02.03s-.24.32-.35,1.09c-.05.34-.15.36-.38.41-.13.03-.27.06-.4.15l-.05.03c-.16.11-.23.16-.37.18-.01,0-.03,0-.04,0l-.06-.09c-.24-.35-.52-.42-.71-.42-.17,0-.31.05-.39.1.05-.06.11-.13.18-.19.11-.1.23-.2.37-.28.13-.09.28-.17.42-.26.14-.09.26-.18.37-.26.09-.07.17-.14.23-.19.07-.06.11-.1.11-.1,0,0-.18.03-.43.11-.13.04-.27.09-.42.16-.15.06-.31.14-.47.24-.07.05-.14.11-.21.17t0,0c-.07.06-.13.13-.19.2-.11.14-.19.29-.23.43,0,.05-.01.08-.02.12h-.01s-.02.27-.02.27c-.02.02-.08.05-.21.05,0-.14-.05-.36-.2-.51-.12-.13-.29-.19-.51-.18.1-.09.21-.17.33-.24.13-.09.28-.17.42-.26.14-.09.26-.18.37-.26.21-.16.33-.29.33-.29,0,0-.18.03-.43.11-.13.04-.27.09-.42.16-.15.06-.31.14-.47.24-.08.05-.15.11-.22.17-.07.06-.13.13-.19.2-.11.14-.19.29-.23.43-.02.08-.03.15-.03.21,0,.02-.01.05-.02.07-.04,0-.07,0-.1,0-.03,0-.07-.02-.11-.03,0-.12-.03-.4-.21-.59-.14-.15-.34-.2-.59-.17.1-.09.2-.18.33-.26.08-.06.17-.11.26-.17.09-.06.16-.13.23-.19.13-.12.2-.23.2-.23,0,0-.13,0-.3.04-.09.02-.18.05-.28.09-.1.03-.2.08-.31.15-.1.07-.19.16-.27.26,0,0,0,0,0,0,0-.19-.06-.33-.15-.43-.09-.11-.23-.17-.4-.17-.03,0-.06,0-.09,0,.11-.12.28-.24.57-.37.11-.05.23-.1.35-.16.61-.27,1.3-.57,1.71-.97.5-.48.98-1.76,1-1.82.03-.09.77-2.23.91-3.25,0-.03.27-2.1.39-3.81.02-.04.04-.09.07-.13.04-.08.09-.16.13-.26.05-.14.1-.29.14-.46.03.07.05.14.08.2.08.19.18.38.3.57.09.15.2.31.3.43l.31.36.09-.46c.13-.67.44-1.35.96-2.12.47-.69.87-1.38,1.18-1.92,0,1.46.8,1.77.84,1.78l.78.28-.52-.64c-.33-.41-.01-1.33.13-1.64l1.75-3.12c.25.78.96,1.18,1,1.2l.56.31-.23-.59c-.47-1.19.33-1.96.37-2,1.22-1.15,1.44-2.19,1.48-2.69ZM56.03,46.52s.26-.33.57-.33c.15,0,.31.09.47.25.36.39.33.83.24,1.12-.39-.42-1.02-.82-1.31-1,0-.01.02-.03.02-.04ZM45.18,45.68c.17-.2.36-.29.62-.29.1,0,.22.01.36.05,0,0,.11.03.25.09-.23.16-.55.44-.88.88l-.35.48.2-.04c-.12.06-.23.13-.34.2-.07-.14-.14-.32-.16-.36-.07-.32.04-.69.29-1ZM43.87,53.42s.09-.03.13-.05c.07-.03.14-.05.22-.08.12-.04.24-.08.34-.12.59-.19,1.14-.32,1.62-.39.02,0,.04,0,.05,0,.16-.02.31-.04.46-.05-.02-.31.05-.68.12-.96-.15-.04-.3-.08-.44-.11-.19-.04-.37-.08-.54-.11-.24-.04-.47-.08-.68-.11-.04,0-.09-.01-.13-.01-.24-.03-.46-.05-.66-.06-.15,0-.29-.01-.42-.01-.08,0-.16,0-.23,0-.19,0-.34.01-.46.02-.05,0-.09,0-.13.01-.05,0-.07,0-.08.01.03,0,.06,0,.09-.01.05-.01.11-.01.16-.02.19-.03.37-.05.55-.06.13,0,.25-.02.38-.02.14,0,.27,0,.4,0,.18,0,.35.01.52.03.06,0,.12.01.18.02.25.03.51.06.75.11.12.02.23.05.35.08.15.03.3.07.44.11.02-.08.04-.15.06-.2.11-.26.67-1.58.71-2.01.18-.66.4-1.43.77-2.1.3-.56.89-1.15,1.46-1.15.19,0,.35.06.52.19l.6.47-.25-.72s-.04-.11-.09-.23c.26.08.47.17.52.26l.46.77-.04-.9c0-.06-.02-.41-.12-.75.15.08.29.19.35.35l.46,1.27v-1.28c.11.13.22.3.25.49l.05.34.29-.19s.29-.19.78-.2c-.03.04-.06.08-.09.12l-.15.27.3.07s.91.22,1.3,1.67c.29,1.07.3,1.6.3,1.99,0,.2,0,.37.04.55.03.14.05.26.07.39.04.3.09.61.28,1.11.15-.02.31-.04.47-.05.05,0,.09,0,.13-.01.03,0,.05,0,.08,0,.43-.03.88-.03,1.34,0,.44.03.88.08,1.33.18.11.02.22.05.33.08.27.07.54.15.81.25,0,0,.02,0,.03,0h0s0,0,0,0c-.01,0-.04-.01-.07-.02,0,0,0,0-.02,0-.04-.01-.08-.02-.14-.04,0,0-.02,0-.03,0-.06-.01-.12-.03-.2-.05-.01,0-.03,0-.04,0-.09-.02-.18-.04-.28-.06-.09-.02-.19-.03-.29-.05-.31-.05-.68-.09-1.11-.11-.33-.02-.68-.02-1.08,0-.19,0-.38.01-.59.03-.05,0-.09,0-.14.01-.15.01-.3.02-.47.04.04.13.09.4.08.77l-.57-.71c.17-.02.33-.05.49-.06l-.06-.18c-.85.11-1.59.28-2.14.45-.66.2-1.06.37-1.06.37.4-.11.78-.2,1.14-.29.57-.13,1.11-.22,1.61-.29l.14.82s.01.11.02.19c.27.03.56.07.85.12.26.05.52.1.8.17.78.2,1.58.5,2.33.96.12.07.24.14.35.22.02.01.04.03.06.04,0,0-.02-.01-.06-.03-.06-.03-.18-.09-.34-.17-.31-.14-.78-.35-1.4-.56-.5-.17-1.09-.33-1.76-.47-.25-.05-.52-.1-.8-.14,0,.25-.02.56-.15.72-.09.11-.22.28-.35.47.13.07.27.14.41.22.08.05.17.1.25.15.44.26.88.57,1.28.92.16.14.32.29.47.45.15.16.29.33.43.51.03.04.06.09.09.13,0,0-.03-.04-.09-.1-.08-.09-.21-.22-.4-.38-.12-.11-.27-.24-.44-.37-.32-.26-.73-.56-1.23-.87-.14-.09-.3-.19-.46-.28-.13-.08-.26-.15-.4-.23-.3.43-.61.88-.63.91-.42.6-1.13,1.65-1.13,1.99,0,.07,0,.17,0,.29,0,.26.04.96-.05,1.1l-.02.04s-.06.16-.19.37c-.01-.15-.04-.32-.1-.52l-.26-.98-.19.99s-.14.69-.55,1c-.14.1-.25.17-.34.23-.07.04-.13.08-.19.12,0-.08,0-.17,0-.28.07-.63-.11-.88-.15-.93l-.2-.23-.16.25s-.14.21-.25.49c-.07-.17-.13-.4-.09-.71l.07-.52-.43.3s-.43.31-.46,1.04c-.04-.02-.07-.05-.1-.09-.15-.18-.32-.55-.24-1.34.04-.09,0-.21-.24-.9l-1.15-3.44c-.19.09-.37.19-.54.29,0,.02-.01.03-.02.05,0-.01,0-.03,0-.04-.14.09-.29.17-.43.26-.04.03-.08.05-.12.08-.11.07-.21.14-.31.21-.61.43-1.04.83-1.28,1.08-.17.17-.26.27-.26.27.09-.14.19-.28.29-.42.35-.45.79-.82,1.26-1.13.27-.18.55-.34.83-.49-.01-.2-.02-.43,0-.69l.03-.7c-.07,0-.13,0-.2,0l-.23.5c-.02-.13-.05-.28-.09-.42,0-.02,0-.04-.01-.07-.16,0-.31.02-.46.04-.02,0-.03,0-.05,0-.69.07-1.28.19-1.7.29-.11.03-.21.06-.3.08-.08.02-.15.04-.2.06-.06.02-.1.03-.13.04-.02,0-.04.01-.04.01.01,0,.02,0,.04-.01ZM43.44,63.05s-.08-.09-.13-.14c-.06-.07-.12-.15-.19-.22-.02-.04-.05-.09-.08-.14-.01-.03-.03-.06-.05-.09s-.03-.06-.05-.09c-.02-.04-.05-.09-.08-.13-.01-.02-.03-.05-.05-.08-.03-.05-.06-.11-.1-.17-.01-.02-.03-.05-.04-.07-.04-.07-.08-.13-.12-.2-.01-.02-.02-.04-.04-.06-.05-.08-.1-.16-.14-.25,0-.01-.01-.02-.02-.03-.08-.14-.17-.29-.26-.44-.02-.04-.05-.07-.06-.11-.07-.12-.14-.23-.21-.36-.05-.08-.09-.16-.14-.24-.05-.08-.09-.16-.14-.24-.06-.11-.13-.22-.19-.33-.03-.06-.07-.11-.1-.17-.09-.14-.17-.28-.25-.43-.01-.02-.03-.04-.04-.07-.09-.14-.17-.29-.26-.44-.03-.05-.05-.09-.08-.14-.08-.13-.16-.27-.24-.41-.02-.04-.05-.08-.07-.11-.08-.14-.17-.29-.25-.43-.03-.05-.05-.09-.08-.14-.81-1.37-1.57-2.65-2-3.37h0s-.05-.08-.07-.12c-.12-.19-.2-.33-.25-.41-.02-.03-.03-.05-.04-.06h0c-.13-.18-.4-.32-.51-.37-.1-.05-.2-.09-.29-.13-.33-.14-.57-.26-1.08-.89l-.06-.08h-.1s-.81-.07-.85-.57v-.02s.04-.03.04-.03c.29-.26.39-.58.42-.71.34.18.73.37.9.37h.03c.12-.01.21-.09.24-.2.09-.32-.38-.96-.82-1.28-.22-.16-.32-.34-.35-.49.28-.04.71-.23.67-.69.03,0,.06-.02.09-.02.08,0,.14.03.19.09.14.19.33.51.48.77.18.31.25.44.32.5.08.13.18.24.28.31.06.05.12.08.16.09.05.02.07.02.07.02,0,0,0-.03-.02-.07,0-.02-.01-.05-.02-.08l-.02-.41c-.07-.72-.1-.85-.18-1.02-.26-.53-.28-.77-.26-.87l.11.03s.09.03.22.03c.16,0,.4-.04.58-.26l.02-.03v-.04c.05.04.1.11.12.26.03.2.05.37.06.51.02.31.1.58.19.79.03.12.08.23.13.32.04.06.08.12.11.15.04.03.06.04.06.04,0,0,0-.03,0-.07,0-.05.01-.1.02-.17.01-.12,0-.26,0-.41l.03-.17c0-.32.02-.64.06-.82.09.06.26.15.48.15.15,0,.29-.05.42-.14l.05-.03v-.05s.05-.02.07-.03c.07.06.19.24.17.55,0,.14-.03.31-.05.49-.06.57-.14,1.22,0,1.65.02.07.04.14.06.23.16.58.42,1.54,1.61,2.94.52.61,1.16,1.15,1.78,1.6-.17.39-.51.69-.95.83l-.96.29.99.16c.12.02.27.04.41.04h.04c.14,0,.29-.02.43-.05.24-.05.45-.15.65-.27.03-.02.05-.04.08-.06-.01.37.02.75.1,1.19.38,1.92,1.42,2.37,1.73,2.46l.24.29c.13.14.24.29.35.43h0c.06.08.12.16.17.24.03.05.05.09.08.13.04.06.08.12.11.18.02.04.04.07.06.11.05.09.09.18.13.27,0,.03.02.06.04.09.02.05.03.09.05.14,0,.04.02.08.03.12,0,.04.02.08.02.12,0,.05.01.09.02.14,0,.03,0,.06,0,.09,0,.07,0,.15,0,.22-.08.52-.44.75-.46.76l-1.3.77,1.47-.35c.69-.17,1.11-.66,1.36-1.08.05.15.09.29.14.42-.29.15-.57.3-.78.41-.02,0-.03.02-.05.03-.02.01-.05.02-.06.03-.04.02-.07.04-.1.05h0s-.07.04-.1.05h0s-.04.02-.05.02c-.95.41-1.79.54-2.51.4-.42-.08-.75-.33-1.13-.67Z"/>
  <polygon points="112.18 45.03 115.1 45.03 115.1 32.68 119.01 32.68 119.01 30.08 108.27 30.08 108.27 32.68 112.18 32.68 112.18 45.03"/>
  <path d="M47.26,52.43l-.13.27s.08,0,.11,0v-.27Z"/>
  <path d="M47.22,54.27v.14s.02,0,.03-.01l.07-.19s-.07.04-.1.05Z"/>
  <path d="M49.58,53.4s-.64.14-1.48.48c-.11.04-.23.09-.34.14l.03.1c.11-.06.23-.11.34-.17.44-.2.92-.39,1.44-.55Z"/>
  <path d="M47.63,53.61l-.25.48s-.03.05-.06.13c.15-.07.3-.14.44-.21l-.14-.4Z"/>
  <path d="M52.57,53.89c.4.16.78.32,1.13.49.4.18.76.37,1.1.56l.1-.14c-.42-.21-.81-.38-1.15-.51-.7-.27-1.18-.39-1.18-.39Z"/>
  <path d="M210.06,80.94c0-2.05-1.48-3.75-3.98-3.75h-4.8v12.25h2.39v-4.89s1.72,0,1.72,0l2.39,4.89h2.77s-2.74-5.28-2.74-5.28c1.19-.43,2.24-1.5,2.24-3.22ZM205.92,82.56h-2.25s0-3.24,0-3.24h2.25c1.05,0,1.74.67,1.74,1.62,0,.95-.69,1.62-1.74,1.62Z"/>
  <path d="M191.88,77.08c-1.4,0-2.46.48-3.33,1.34-1.24,1.24-1.2,2.77-1.2,4.89,0,2.12-.04,3.65,1.2,4.89.86.86,1.93,1.34,3.33,1.34,1.39,0,2.44-.48,3.3-1.34,1.24-1.24,1.22-2.77,1.22-4.89,0-2.12.02-3.65-1.22-4.89-.86-.86-1.91-1.34-3.3-1.34ZM193.41,86.76c-.34.39-.88.65-1.53.65s-1.21-.26-1.55-.65c-.47-.52-.58-1.09-.58-3.44,0-2.36.12-2.93.58-3.44.34-.4.9-.65,1.55-.65.65,0,1.19.26,1.53.65.47.52.6,1.08.6,3.44,0,2.36-.14,2.93-.6,3.44Z"/>
  <polygon points="215.63 89.44 223.7 89.44 223.7 87.31 218.03 87.31 218.03 84.33 222.86 84.33 222.86 82.19 218.03 82.19 218.03 79.32 223.7 79.32 223.7 77.19 215.63 77.19 215.63 89.44"/>
  <rect x="108.3" y="70.28" width="115.44" height="1.36"/>
  <rect x="227" y="30.08" width="2.92" height="14.96"/>
  <polygon points="217.87 55.9 215.08 49.88 211.9 49.88 216.4 58.7 216.4 64.83 219.3 64.83 219.3 58.7 223.8 49.88 220.62 49.88 217.87 55.9"/>
  <path d="M178.94,77.19h-4.75v12.25h2.39v-4.61s2.36,0,2.36,0c2.53,0,4.04-1.74,4.04-3.82s-1.52-3.82-4.04-3.82ZM178.81,82.68h-2.24s0-3.36,0-3.36h2.24c1.09,0,1.77.69,1.77,1.69s-.69,1.67-1.77,1.67Z"/>
  <path d="M113.66,64.96c3.07,0,5.5-2.08,5.5-5.25v-9.83h-2.9v9.73c0,1.72-1.03,2.75-2.61,2.75-1.57,0-2.58-1.03-2.58-2.75v-9.73h-2.92v9.83c0,3.17,2.44,5.25,5.51,5.25Z"/>
  <path d="M114.03,82.28l-1.45-.2c-.5-.07-.9-.26-1.14-.48-.26-.24-.36-.57-.36-.88,0-.84.62-1.55,1.9-1.55.81,0,1.74.1,2.51.84l1.52-1.5c-1.05-1.02-2.27-1.43-3.96-1.43-2.65,0-4.27,1.53-4.27,3.72,0,1.03.29,1.82.88,2.41.55.54,1.33.86,2.37,1.02l1.48.21c.57.09.84.21,1.09.43.25.24.38.6.38,1.03,0,.98-.76,1.51-2.17,1.51-1.14,0-2.19-.26-2.96-1.03l-1.55,1.55c1.2,1.22,2.62,1.62,4.47,1.62,2.57,0,4.54-1.34,4.54-3.72,0-1.08-.29-1.98-.95-2.6-.52-.48-1.22-.79-2.34-.95Z"/>
  <path d="M30,52.6c0,20.47,24.84,40.46,33.46,40.46,7.97,0,33.46-19.98,33.46-40.46V6.95H30v45.65ZM78.98,23.38c.06-.31.15-.68.24-1.02.14.03.29.07.43.1.02,0,.04,0,.05.01.16.03.32.06.48.09-.09.33-.2.71-.26,1.01-.34,1.76-.06,2.62.32,2.83.09.06.21.08.34.08.15,0,.33-.04.52-.11.09.35.3.64.6.82-.39.17-.76.26-1.12.26-.31,0-.59-.07-.83-.21-.64-.36-1.29-1.33-.79-3.87ZM79.27,17.08c-2.07.49-3.37,1.25-3.37,1.96,0,.44.6,1.12,2.29,1.7,1.65.57,3.85.89,6.2.91h.18c.33,0,.65-.01.96-.02-.24.35-.48.68-.71,1-.09,0-.17,0-.25,0h-.19c-2.45-.02-4.76-.36-6.51-.96-2.44-.85-2.95-1.9-2.95-2.64,0-1.34,1.71-2.31,4.04-2.88-.03-.09.32.95.31.93ZM78.19,14.15c0-.57.46-1.04,1.04-1.04s1.04.46,1.04,1.04c0,.57-.47,1.03-1.04,1.03s-1.04-.46-1.04-1.03ZM84.43,15.57c.1,0,.26,0,.39,0,.24.32.47.65.71,1-.35-.02-.75-.03-1.1-.03h-.18c-.3,0-.59,0-.88.02.23-.35.47-.68.7-1,.06,0,.12,0,.19,0h.19ZM87.5,16.76c-.21-.36-.43-.71-.67-1.06.53.05,1.04.12,1.53.2-.09.31-.21.62-.33.94-.18-.03-.35-.06-.53-.08ZM87.48,17.31c.07.12.14.25.2.37-.16.37-.33.74-.52,1.11-.17-.33-.35-.67-.54-1-.66-1.15-1.33-2.13-2-2.97.22-.27.43-.52.65-.76.8,1,1.56,2.12,2.2,3.24ZM85.53,19.17c0,.57-.46,1.04-1.04,1.04-.57,0-1.04-.47-1.04-1.04,0-.57.47-1.04,1.04-1.04.57,0,1.04.46,1.04,1.04ZM82.2,20.33c.19.33.39.65.58.96-.42-.03-.82-.07-1.22-.12-.07-.12-.14-.23-.21-.35-1.04-1.82-1.84-3.72-2.27-5.35.05,0,.09.01.14.01.3,0,.58-.11.81-.28.41,1.56,1.16,3.36,2.17,5.12ZM80.3,19.48c.18.37.38.74.58,1.11-.06.14-.13.31-.18.45-.34-.06-.67-.12-.98-.19.17-.44.38-.94.58-1.38ZM80.85,16.78c-.12-.32-.23-.63-.32-.94.5-.08,1.02-.13,1.54-.18-.23.35-.45.7-.66,1.05-.19.02-.38.04-.56.07ZM80.53,11.6c-.14,0-.25.03-.34.08-.29.17-.46.59-.48,1.22-.15-.06-.31-.09-.48-.09s-.34.04-.49.1c.03-.88.28-1.68.96-2.07.25-.14.53-.21.83-.21,1.12,0,2.43.91,3.71,2.24-.22.24-.43.49-.65.75-1.25-1.31-2.36-2.01-3.06-2.01ZM82.65,22.86c.41.03.82.05,1.24.06.12.15.23.3.34.45-.22.26-.43.52-.65.75-.32-.4-.63-.82-.94-1.25ZM81.38,26.07c0-.57.47-1.04,1.04-1.04s1.04.46,1.04,1.04-.46,1.04-1.04,1.04c-.57,0-1.04-.46-1.04-1.04ZM83.18,24.97c1.1-1.05,2.35-2.61,3.53-4.67,1.15-2,1.97-4.04,2.32-5.74.32-1.55.2-2.61-.31-2.91-.09-.06-.21-.08-.34-.08-1.24,0-3.8,2.17-6.1,6.19-.19.34-.38.69-.56,1.03-.19-.37-.35-.75-.51-1.12.07-.13.14-.26.22-.4,1.91-3.33,4.8-6.68,6.95-6.68.31,0,.58.07.83.21,1.15.66,1.08,2.45.81,3.83-.34,1.79-1.24,4.03-2.46,6.15-1.07,1.86-2.45,3.73-3.83,5.02-.07-.34-.28-.64-.55-.83ZM86.82,22.53c.24-.35.46-.7.67-1.05.17-.02.35-.04.52-.07.12.32.23.63.32.94-.49.08-1,.13-1.51.18ZM85.29,24.57c1.23,1.28,2.32,1.95,3,1.95.14,0,.25-.03.34-.08.38-.22.67-1.08.32-2.84-.18-.92-.52-1.95-.96-3.02.2-.37.4-.74.58-1.11.64,1.39,1.1,2.74,1.33,3.94.5,2.54-.15,3.51-.79,3.87-.24.14-.52.21-.83.21-1.1,0-2.4-.88-3.66-2.19.22-.23.44-.48.66-.74ZM89.9,22.07c-.09-.31-.2-.63-.32-.96.37-.09.7-.18,1.01-.29,0,.03,0,.06,0,.09,0,.32.12.61.31.84-.32.11-.65.2-1,.29,0,.01,0,.02.01.03ZM90.88,20.91c0-.57.47-1.04,1.04-1.04.57,0,1.04.46,1.04,1.04,0,.57-.47,1.04-1.04,1.04s-1.04-.47-1.04-1.04ZM92.6,19.76c.2-.2.31-.4.31-.61,0-.44-.6-1.12-2.29-1.7-.32-.11-.67-.21-1.03-.3.12-.32.23-.63.32-.93.36.09.7.19,1.03.3,2.44.85,2.95,1.9,2.95,2.64,0,.51-.26.97-.7,1.37-.1-.33-.31-.6-.6-.77ZM70.15,20.03s-.31,1.96-1.22,3.03l-.09.1,1.39,1.4c.05.1.23.54.04.8-.17.24-.47.5-.82.5-.19,0-.37-.07-.53-.2l-1.25-1.28-.1.09s-1.18,1.03-3.06,1.39l-.12.02v1.74c-.04.11-.25.69-.85.7-.04,0-.69-.01-.85-.64v-1.77s-.14,0-.14,0c-.02,0-1.7-.11-3.28-1.25l-.1-.07-1.13,1.12s-.24.15-.53.15c-.24,0-.44-.1-.61-.3-.48-.56-.06-1.08-.05-1.09l1.08-1.05-.09-.11s-1.15-1.46-1.41-3.28l-.02-.13-1.64-.03c-.13-.04-.77-.28-.58-1.13,0-.02.22-.51.72-.56h1.5s.02-.12.02-.12c0-.02.29-1.98,1.39-3.33l.09-.1-1.14-1.17c-.05-.13-.3-.79.39-1.18,0,0,.13-.08.33-.08.27,0,.54.14.81.42l.86.84.1-.08s1.37-1.05,3.19-1.24l.23-.02v-1.77s.06-.43.58-.62c.07-.03.14-.04.22-.04.44,0,.86.44.87.64.02.32,0,1.7,0,1.71v.13s.13.02.13.02c.02,0,1.87.27,3.08,1.38l.1.1,1.3-1.3s.27-.18.57-.18c.24,0,.43.11.6.33.06.06.53.59-.15,1.24-.8.77-1.03,1.01-1.04,1.02l-.08.09.07.1s1.14,1.71,1.22,3.07v.14s2.02.05,2.02.05c.08.03.4.18.54.48.09.22.08.48-.05.78,0,0-.18.36-.83.41h-1.66s-.02.13-.02.13ZM36.91,23.38c.06-.31.15-.68.24-1.02.14.03.29.07.44.1.01,0,.03,0,.05.01.16.03.32.06.48.09-.09.33-.2.71-.26,1.01-.34,1.76-.06,2.62.32,2.83.09.06.21.08.34.08.15,0,.33-.04.52-.11.09.35.3.64.6.82-.39.17-.76.26-1.12.26-.31,0-.59-.07-.83-.21-.64-.36-1.29-1.33-.79-3.87ZM37.2,17.08c-2.07.49-3.37,1.25-3.37,1.96,0,.44.6,1.12,2.29,1.7,1.65.57,3.85.89,6.2.91h.18c.33,0,.65-.01.96-.02-.24.35-.48.68-.71,1-.09,0-.17,0-.25,0h-.19c-2.45-.02-4.76-.36-6.51-.96-2.44-.85-2.95-1.9-2.95-2.64,0-1.34,1.71-2.31,4.04-2.88-.03-.09.32.95.31.93ZM36.11,14.15c0-.57.47-1.04,1.04-1.04.57,0,1.04.46,1.04,1.04,0,.57-.47,1.03-1.04,1.03-.57,0-1.04-.46-1.04-1.03ZM42.36,15.57c.09,0,.27,0,.39,0,.24.32.47.65.71,1-.35-.02-.75-.03-1.1-.03h-.18c-.3,0-.59,0-.88.02.23-.35.47-.68.7-1,.06,0,.12,0,.19,0h.19ZM45.42,16.76c-.21-.36-.43-.71-.67-1.06.53.05,1.04.12,1.53.2-.09.31-.21.62-.33.94-.17-.03-.35-.06-.53-.08ZM45.4,17.31c.07.12.14.25.2.37-.16.37-.33.74-.52,1.11-.17-.33-.35-.67-.54-1-.66-1.15-1.33-2.13-2-2.97.22-.27.43-.52.65-.76.8,1,1.56,2.12,2.2,3.24ZM43.45,19.17c0,.57-.46,1.04-1.04,1.04s-1.04-.47-1.04-1.04.47-1.04,1.04-1.04,1.04.46,1.04,1.04ZM40.13,20.33c.19.33.38.65.57.96-.42-.03-.82-.07-1.22-.12-.07-.12-.14-.23-.21-.35-1.04-1.82-1.84-3.72-2.27-5.35.05,0,.09.01.14.01.3,0,.58-.11.81-.28.4,1.56,1.15,3.36,2.17,5.12ZM38.23,19.48c.18.37.38.74.58,1.11-.06.14-.13.31-.18.45-.34-.06-.67-.12-.98-.19.16-.44.38-.94.57-1.38ZM38.77,16.78c-.12-.32-.23-.63-.32-.94.5-.08,1.02-.13,1.54-.18-.23.35-.45.7-.66,1.05-.19.02-.38.04-.57.07ZM38.46,11.6c-.14,0-.25.03-.34.08-.29.17-.46.59-.48,1.22-.15-.06-.31-.09-.48-.09s-.34.04-.49.1c.03-.88.28-1.68.97-2.07.24-.14.52-.21.83-.21,1.12,0,2.43.91,3.71,2.24-.22.24-.44.49-.65.75-1.25-1.31-2.36-2.01-3.06-2.01ZM40.58,22.86c.41.03.82.05,1.24.06.12.15.23.3.34.45-.22.26-.43.52-.65.75-.32-.4-.63-.82-.94-1.25ZM39.31,26.07c0-.57.47-1.04,1.04-1.04s1.04.46,1.04,1.04-.46,1.04-1.04,1.04c-.57,0-1.04-.46-1.04-1.04ZM41.1,24.97c1.1-1.05,2.34-2.61,3.53-4.67,1.15-2,1.97-4.04,2.32-5.74.32-1.55.2-2.61-.31-2.91-.1-.06-.21-.08-.34-.08-1.24,0-3.79,2.17-6.1,6.19-.2.34-.38.69-.56,1.03-.19-.37-.35-.75-.51-1.12.07-.13.14-.26.22-.4,1.91-3.33,4.8-6.68,6.95-6.68.31,0,.58.07.83.21,1.15.66,1.08,2.45.81,3.83-.34,1.79-1.24,4.03-2.46,6.15-1.07,1.86-2.45,3.73-3.83,5.02-.07-.34-.28-.64-.55-.83ZM44.75,22.53c.23-.35.45-.7.67-1.05.17-.02.35-.04.52-.07.12.32.23.63.32.94-.49.08-1,.13-1.5.18ZM43.22,24.57c1.23,1.28,2.32,1.95,3,1.95.14,0,.25-.03.34-.08.38-.22.67-1.08.32-2.84-.18-.92-.52-1.95-.96-3.02.2-.37.4-.74.58-1.11.64,1.39,1.1,2.74,1.33,3.94.5,2.54-.15,3.51-.79,3.87-.24.14-.52.21-.83.21-1.1,0-2.4-.88-3.66-2.19.22-.23.44-.48.66-.74ZM47.82,22.07c-.09-.31-.2-.63-.32-.96.37-.09.7-.18,1.01-.29,0,.03,0,.06,0,.09,0,.32.11.61.3.84-.32.11-.65.2-1,.29,0,.01,0,.02,0,.03ZM48.81,20.91c0-.57.47-1.04,1.04-1.04.57,0,1.04.46,1.04,1.04s-.47,1.04-1.04,1.04c-.57,0-1.04-.47-1.04-1.04ZM50.52,19.76c.2-.2.31-.4.31-.61,0-.44-.6-1.12-2.29-1.7-.32-.11-.67-.21-1.03-.3.12-.32.22-.63.32-.93.36.09.71.19,1.03.3,2.44.85,2.95,1.9,2.95,2.64,0,.51-.26.97-.7,1.37-.09-.33-.31-.6-.6-.77ZM30.74,29.79h9.11s0,4.81,0,4.81h8.22v-4.81s11.02,0,11.02,0v4.81h8.2v-4.81s11.2,0,11.2,0v4.81h8.13v-4.81s9.56,0,9.56,0v22.74c0,20.03-24.93,39.57-32.72,39.57-8.43,0-32.72-19.54-32.72-39.57v-22.74Z"/>
  <path d="M150.45,84.62h2.26s0,.47,0,.47c0,.64-.15,1.19-.55,1.63-.4.43-.98.69-1.71.69-.65,0-1.19-.24-1.53-.64-.47-.52-.59-1.1-.59-3.46,0-2.36.12-2.93.59-3.44.34-.4.88-.65,1.53-.65,1.22,0,1.93.64,2.21,1.79h2.41c-.33-2.06-1.77-3.92-4.61-3.92-1.38,0-2.44.48-3.3,1.34-1.24,1.24-1.21,2.77-1.21,4.89,0,2.12-.03,3.65,1.21,4.89.86.86,1.96,1.34,3.3,1.34,1.31,0,2.48-.38,3.46-1.39.86-.9,1.17-1.96,1.17-3.74v-1.79h-4.63v2Z"/>
  <rect x="122.67" y="77.19" width="2.39" height="12.25"/>
  <polygon points="138.01 84.69 133.16 77.19 131.02 77.19 131.02 89.44 133.41 89.44 133.41 81.92 138.26 89.44 140.4 89.44 140.4 77.19 138.01 77.19 138.01 84.69"/>
</svg>