<?xml version="1.0" encoding="UTF-8"?>
<svg id="Layer_1" xmlns="http://www.w3.org/2000/svg" version="1.1" viewBox="0 0 300 100">
  <!-- Generator: Adobe Illustrator 30.0.0, SVG Export Plug-In . SVG Version: 2.1.1 Build 123)  -->
  <path d="M183.64,29.17c-6.04,0-7.68,3.66-8.56,5.63l-7.97,17.63-7.12-16.71c-.71-1.67-1.81-3.19-3.18-4.38-.8-.7-2.47-2.17-4.73-2.17h-17.27v41.65h16.86v-17.45l6.92,15.22c.14.28.32.55.53.79.77.89,1.9,1.44,2.96,1.44h9.96c1.06,0,2.19-.54,2.92-1.4.23-.25.42-.53.58-.87l7.71-16.86v19.13h16.86V29.17h-16.47ZM197.91,67.84c0,.45-.38.82-.84.82h-10.77c-.46,0-.84-.36-.84-.82v-19.88c0-2.35.72-5.93,2.13-7.84.28-.38.51-.81.86-1.03-2.15,1.32-3.6,3.83-3.6,3.83l-11.31,24.72c-.06.13-.13.24-.24.35-.33.39-.86.66-1.27.66h-9.96c-.41,0-.93-.28-1.28-.68-.09-.1-.17-.22-.21-.3l-2.6-5.71-7.33-16.52c-.03-.08-.07-.16-.12-.23-.22-.36-.44-.7-.66-1.03l-.42-.59c-1.47-2.01-3.03-3.47-4.11-4.51,1.85,1.91,4.07,5.88,4.07,9.31h.04v19.44c0,.45-.38.82-.84.82h-10.77c-.46,0-.84-.36-.84-.82v-35.71c0-.42.33-.77.74-.81.03,0,.07,0,.1,0h14.22c.08,0,.17,0,.25,0,1.18.1,2.13.84,3.01,1.61,1.12.98,2.02,2.22,2.61,3.6l9.09,21.34,10.05-22.22c.77-1.72,1.8-4.03,5.72-4.31.11,0,.23-.02.35-.02.15,0,.31,0,.47,0h13.43s.07,0,.1,0c.42.05.74.39.74.81v35.71Z"/>
  <path d="M112.35,29.17v28.24c-.67-.17-1.36-.26-2.06-.26h-16.46c-.71,0-1.4.09-2.08.26v-28.24h-15.66v28.67c0,6.99,5.67,12.79,12.64,12.94.1,0,.2,0,.29,0h26.16l.19.05.2-.06c6.98-.27,12.43-5.94,12.43-12.93v-28.67h-15.66ZM126.1,57.84c0,6-4.67,10.83-10.65,11.03h-.13c-.08,0-.17,0-.25,0h-26.04c-.08,0-.15,0-.24,0-5.95-.13-10.8-5.08-10.8-11.04v-25.96c0-.45.36-.81.81-.81h10.22c.45,0,.81.36.81.81v23.55c-.33,2.71-1.53,5.14-3.3,7.03,1-1,2.22-1.8,3.3-2.31.39-.18.76-.33,1.09-.44.9-.45,1.88-.67,2.89-.67h16.46c1,0,1.97.22,2.86.66,0,0,.02,0,.03.01l.06.03c.32.1.66.24,1.02.41,1.08.51,2.29,1.3,3.29,2.3-1.74-1.85-2.93-4.23-3.29-6.88v-23.7c0-.45.36-.81.81-.81h10.23c.45,0,.81.36.81.81v25.96Z"/>
  <path d="M271.69,42.05l-12.89-12.89h-36.92l-12.89,12.89c-4.4,4.4-4.4,11.56,0,15.97l12.8,12.8h37.09l12.8-12.8c2.13-2.13,3.31-4.97,3.31-7.98s-1.17-5.85-3.31-7.98ZM228.4,49.34l11.67-11.67c1.11-1.11,2.59-1.72,4.16-1.72s3.04.61,4.15,1.72l5,5c2.29,2.29,2.29,6.02,0,8.31l-11.68,11.68c-1.11,1.11-2.58,1.72-4.15,1.72s-3.05-.61-4.16-1.72l-5-5c-2.29-2.29-2.29-6.02,0-8.31Z"/>
  <path d="M40.66,57.18v-27.98h-15.66v41.62h44.95v-13.63h-29.29ZM68.05,67.37c0,.85-.69,1.54-1.54,1.54H27.44c-.3,0-.54-.24-.54-.54V31.64c0-.3.24-.54.54-.54h10.77c.3,0,.54.25.54.54v24.68c0,.2-.03.4-.09.59-.57,1.82-1.55,3.45-2.82,4.8,1.12-1.12,2.49-1.97,3.69-2.46.26-.1.53-.16.81-.16h26.16c.85,0,1.53.69,1.53,1.53v6.76Z"/>
</svg>