<?xml version="1.0" encoding="UTF-8"?>
<svg id="Layer_1" xmlns="http://www.w3.org/2000/svg" version="1.1" viewBox="0 0 300 100">
  <!-- Generator: Adobe Illustrator 30.0.0, SVG Export Plug-In . SVG Version: 2.1.1 Build 123)  -->
  <path d="M120.42,33.42v9.05s-24.53,0-24.53,0c-.52,0-1.61,1.09-1.61,1.61v1.44h24.13s0,8.96,0,8.96h-24s-.13.13-.13.13v1.3c0,.5,1.02,1.61,1.52,1.61h24.61s0,9.05,0,9.05h-27.58c-4.6-.42-7.41-3.67-7.62-8.22-.28-5.97.14-12.03.1-18,.64-4.07,3.79-6.71,7.87-6.93h27.23Z"/>
  <path d="M132.16,33.45l24.72-.02c4.03.15,7.5,3.29,7.8,7.35.44,5.96-.33,12.43,0,18.44-.32,3.59-2.98,6.56-6.53,7.22-8.68.29-17.41.04-26.1.13-3.95-.25-7.09-3.27-7.53-7.18.3-6.09-.4-12.57,0-18.62.26-3.97,3.71-7.17,7.65-7.32ZM135.12,42.49c-.94.26-1.54.96-1.63,1.94-.35,3.54.26,7.63,0,11.22.14.94.79,1.8,1.78,1.87h18.74c1.1-.27,1.61-1.03,1.7-2.13.27-3.47-.21-7.29,0-10.79-.05-1.09-.83-2.08-1.96-2.13l-18.63.02Z"/>
  <path d="M72.15,55.08v-21.66s9.06,0,9.06,0v26.05c-.35,6.15-7.22,9.23-12.06,5.43l-19.91-19.87-.26-.13v21.66s-8.97,0-8.97,0v-26.66c0-.34.3-1.28.43-1.65,1.63-4.61,7.47-6.28,11.36-3.33l20.36,20.16Z"/>
  <polygon points="260 33.42 243.45 50 259.91 66.56 247.15 66.56 237.03 56.48 226.85 66.56 214.08 66.56 230.54 50 214 33.42 226.76 33.42 236.97 43.59 247.24 33.42 260 33.42"/>
  <path d="M177.75,33.42v22.4c0,.65,1.04,1.78,1.7,1.78h19.47s0,8.96,0,8.96h-22.61c-3.35.1-7.53-3.65-7.53-7v-26.14s8.97,0,8.97,0Z"/>
  <rect x="202.93" y="33.42" width="9.06" height="33.14"/>
</svg>