<?xml version="1.0" encoding="UTF-8"?>
<svg id="Layer_1" xmlns="http://www.w3.org/2000/svg" version="1.1" viewBox="0 0 300 100">
  <!-- Generator: Adobe Illustrator 30.0.0, SVG Export Plug-In . SVG Version: 2.1.1 Build 123)  -->
  <g>
    <path d="M44.43,69.69l-2.86-4.89h-6.43l-.88,4.89h-9.25l1.8-10.3h17.83c1.85,0,2.86-.71,2.86-2.18,0-1.03-.77-1.47-2.21-1.47h-17.85l1-5.74h16.99c4.09,0,9.27,1.18,9.27,6.06,0,3.44-2.33,6.5-6,7.36l4.83,6.27h-9.09Z"/>
    <path d="M72.51,69.69l1.3-7.3h-8.41l-1.29,7.3h-9.28l3.5-19.69h9.28l-1.21,6.71h8.41l1.21-6.71h9.25l-3.5,19.69h-9.25Z"/>
    <path d="M140.08,50h-21.8l-3.5,19.69h9.28l2.48-13.95h6.75c1.83,0,3.22,1.66,2.9,3.46l-1.87,10.49h9.28l2.27-12.77c.64-3.61-2.13-6.92-5.8-6.92Z"/>
    <polygon points="106.98 50 100.67 56.71 96.5 50 86.49 50 95.08 62 93.71 69.69 102.99 69.69 104.37 61.94 116.8 50 106.98 50"/>
    <path d="M147.96,54.86l-1.41,7.91c-.64,3.61,2.13,6.92,5.8,6.92h17.71c2.85,0,5.3-2.05,5.8-4.86l1.41-7.91c.64-3.61-2.13-6.92-5.8-6.92h-17.71c-2.85,0-5.3,2.05-5.8,4.86ZM154.41,61.07l.59-3.3c.21-1.17,1.23-2.02,2.42-2.02h9.56c1.53,0,2.68,1.38,2.42,2.88l-.59,3.3c-.21,1.17-1.23,2.02-2.42,2.02h-9.56c-1.53,0-2.68-1.38-2.42-2.88Z"/>
  </g>
  <g>
    <path d="M265.36,49.32l1.63-4.75-3.8,1.22-4.35-8.83-22.68-6.65-13.31,8.01h-22.92l-8.34,17.18,6.72-5.5h9.12l-12.03,9.84,8.62,9.84.8-3.67,3.18-6.09-.44,4.19,3.96,5.57h8.19l-2.98-4.89,3.76-1.97-.09-4.93,5.49,11.79h7.06l-1.36-3.94,3.93-8.01,9.17,11.95h6.94l-1.9-5.3,2.85-8.84,9.78,5.98,12.63-17.91-9.64,5.7ZM259.95,49.23l-.92-2.94,3.09,2.94h-2.17Z"/>
    <polygon points="177.66 50 186.28 59.84 174.25 69.69 183.36 69.69 190.09 64.19 194.9 69.69 191.59 55.5 186.77 50 177.66 50"/>
  </g>
</svg>